<?xml version="1.0" standalone="no"?>
<!DOCTYPE svg PUBLIC "-//W3C//DTD SVG 1.1//EN" "http://www.w3.org/Graphics/SVG/1.1/DTD/svg11.dtd" >
<svg xmlns="http://www.w3.org/2000/svg">
<metadata>
Created by FontPrep 20130207 at Sun Nov 22 20:37:37 2015
 By Nicola Selleri
(c) 1989, 1990, 1999, 2001 Adobe Systems Incorporated. All rights reserved.
</metadata>
<defs>
<font id="2b543206861fcb846b6434f04db8acbf" horiz-adv-x='1024' >
  <font-face 
    font-family="BodoniStd-Book"
    font-weight="400"
    font-stretch="normal"
    units-per-em="2048"
    panose-1="2 7 6 3 7 5 6 2 3 3"
    ascent="1430"
    descent="-618"
    x-height="811"
    cap-height="1368"
    bbox="-342 -512 2048 1814"
    underline-thickness="102"
    underline-position="-102"
    unicode-range="U+0020-FB02"
  />
<missing-glyph 
d="M102 1239v-1044l349 522zM164 102h696l-348 523zM573 717l349 -522v1044zM512 809l348 522h-696zM0 0v1434h1024v-1434h-1024z" />
    <glyph glyph-name="f_i" unicode="fi" 
d="M555 1376q-225 0 -225 -418v-147h301q147 0 229 20v-784h121v-47h-403v47h122v717h-370v-717h125v-47h-443v47h158v717h-158v47h158v100q0 242 109 373t280 131q92 0 172 -39t80 -123q0 -33 -27 -59q-26 -26 -62 -27q-36 0 -63 29q-59 63 13 135q0 17 -42 31t-75 14z" />
    <glyph glyph-name="f_l" unicode="fl" 
d="M860 47h121v-47h-403v47h122v717h-370v-717h125v-47h-443v47h158v717h-158v47h158v107q0 242 109 372t280 131q55 0 111 -18l73 -19q30 0 67 12l50 17v-1366zM330 811h370v385q-20 4 -41 34q-20 30 -20 56t14 47l15 23q0 27 -113 26q-76 0 -151 -82t-74 -274v-215z" />
    <glyph glyph-name=".notdef" 
d="M102 1239v-1044l349 522zM164 102h696l-348 523zM573 717l349 -522v1044zM512 809l348 522h-696zM0 0v1434h1024v-1434h-1024z" />
    <glyph glyph-name=".null" horiz-adv-x="0" 
 />
    <glyph glyph-name="nonmarkingreturn" horiz-adv-x="681" 
 />
    <glyph glyph-name="space" unicode=" " horiz-adv-x="512" 
 />
    <glyph glyph-name="exclam" unicode="!" horiz-adv-x="569" 
d="M281 -23q-51 0 -84 34t-33 83t36 83t82 34t85 -34t39 -83t-37 -83t-88 -34zM168 1257q0 57 31 99t86 41q55 0 86 -41t30 -99q0 -14 -20 -138q-64 -397 -74 -709h-45q-10 316 -74 709q-20 124 -20 138z" />
    <glyph glyph-name="quotedbl" unicode="&#x22;" horiz-adv-x="909" 
d="M176 1241q0 125 90 125t90 -125q0 -43 -22 -194q-22 -150 -37 -254h-59q-32 221 -47 304q-15 84 -15 144zM553 1241q0 125 90 125t90 -125q-1 -43 -23 -194q-22 -150 -36 -254h-60q-35 242 -48 315t-13 133z" />
    <glyph glyph-name="numbersign" unicode="#" 
d="M684 821h-276l-50 -321h277zM952 500v-107h-219l-59 -393h-115l59 393h-276l-59 -393h-115l59 393h-215v107h232l49 321h-221v107h237l60 393h114l-59 -393h276l60 393h114l-59 -393h197v-107h-213l-49 -321h202z" />
    <glyph glyph-name="dollar" unicode="$" 
d="M412 33l86 -6l82 14v532l-168 56v-596zM631 559v-506q94 29 153 107t60 176q0 160 -213 223zM360 836v426q-63 -24 -113 -88t-50 -132q-1 -151 163 -206zM491 1288q-32 0 -79 -14v-457l168 -49v516q-57 4 -89 4zM360 41v604q-244 84 -243 338q0 111 69 202q70 91 174 124
v188h52v-178q74 12 104 12t64 -2v168h51v-174q119 -12 195 -91t77 -165q0 -55 -29 -91q-30 -36 -76 -36t-72 25t-26 69q0 65 85 93q28 9 28 22q0 35 -58 77t-124 50v-520q139 -39 222 -130q83 -90 83 -226t-90 -246t-215 -146v-186h-51v178q-35 -10 -86 -14q-29 2 -82 6
v-170h-52v176q-116 4 -204 92t-88 182q0 127 125 127q33 -1 57 -27t22 -64q0 -38 -17 -62t-39 -31q-56 -15 -56 -41q0 -39 74 -86t126 -47z" />
    <glyph glyph-name="percent" unicode="%" horiz-adv-x="1705" 
d="M1401 762q73 0 141 -55t68 -177t-91 -313q-47 -94 -135 -160q-88 -65 -195 -65t-175 66t-68 175q0 177 142 353t313 176zM1563 520q0 178 -129 178q-74 0 -154 -96t-128 -217t-48 -203q0 -133 139 -133q82 0 159 86q77 87 119 195t42 190zM545 1266q-53 0 -124 -94
t-119 -217q-48 -124 -48 -210q0 -129 129 -129q104 0 215 151t111 312q0 47 -11 80q-102 52 -127 107h-26zM838 1128q-2 0 -82 13v-31q0 -195 -120 -373t-296 -178q-106 0 -175 69t-69 179q0 170 144 346t304 176q159 0 201 -131q39 -27 117 -27q78 -1 186 55t173 150h90
l-803 -1431h-105l715 1263l-4 4q-119 -84 -276 -84z" />
    <glyph glyph-name="ampersand" unicode="&#x26;" horiz-adv-x="1478" 
d="M592 45q131 0 285 115l-375 624q-113 -43 -176 -102q-118 -111 -22 -358q42 -109 121 -194t167 -85zM1014 786v48h403v-48h-172q-27 -340 -205 -530l127 -209h179v-47h-373l-70 117q-73 -66 -185 -107t-220 -41t-194 39q-150 67 -206 240q-23 72 -22 147q0 113 93 230
t310 202q-23 46 -30 55q-7 8 -18 30t-15 31t-14 29t-14 30q-3 11 -12 36t-14 90q0 129 96 200t221 71q126 0 219 -69t93 -187q0 -176 -311 -293l334 -549q172 217 182 485h-182zM844 1152q0 98 -42 148q-42 52 -116 52t-125 -44t-51 -114t68 -185q18 -32 46 -73t29 -47
q109 47 150 106t41 157z" />
    <glyph glyph-name="quotesingle" unicode="'" horiz-adv-x="454" 
d="M137 1241q0 125 90 125t90 -125q-1 -43 -23 -194q-22 -150 -36 -254h-59q-26 182 -44 290t-18 158z" />
    <glyph glyph-name="parenleft" unicode="(" horiz-adv-x="569" 
d="M96 480q0 273 111 518t315 429l27 -38q-133 -152 -172 -218q-121 -206 -121 -690q0 -276 37 -447t80 -241t153 -194q15 -19 23 -27l-27 -37q-205 182 -315 427q-111 245 -111 518z" />
    <glyph glyph-name="parenright" unicode=")" horiz-adv-x="569" 
d="M313 481q0 273 -37 445q-38 172 -80 242t-153 194q-14 18 -23 27l27 38q205 -184 315 -429t111 -518q-1 -273 -111 -518t-315 -427l-27 37q133 152 173 219q120 201 120 690z" />
    <glyph glyph-name="asterisk" unicode="*" 
d="M139 1108q1 40 21 62t53 22t69 -38t90 -93t120 -86q0 115 -27 202t-27 117t22 51t52 21t52 -22t22 -51q0 -31 -27 -117t-27 -201q66 31 120 86t90 93t69 38t53 -22t20 -62t-44 -59t-136 -39t-157 -64q67 -43 157 -63q90 -21 136 -39t45 -60t-21 -62q-20 -22 -53 -22
t-69 38t-90 93t-120 87q0 -115 27 -202t27 -117q0 -29 -22 -51t-52 -22t-52 22t-22 52t27 116q27 87 27 202q-66 -30 -120 -86t-90 -94t-69 -38t-53 22t-20 62t44 60q45 18 136 38t157 64q-67 44 -157 64t-136 38t-45 60z" />
    <glyph glyph-name="plus" unicode="+" horiz-adv-x="1126" 
d="M504 557v438h119v-438h415v-119h-415v-438h-119v438h-416v119h416z" />
    <glyph glyph-name="comma" unicode="," horiz-adv-x="512" 
d="M348 -30q0 58 -24 59q-5 1 -14 -11t-15 -18q-27 -31 -78 -31q-111 0 -111 115q0 51 41 87t107 36t113 -51q47 -52 47 -148t-70 -184t-168 -154l-16 35q102 84 145 145q43 62 43 120z" />
    <glyph glyph-name="hyphen" unicode="-" horiz-adv-x="681" 
d="M592 375h-502v137h502v-137z" />
    <glyph glyph-name="period" unicode="." horiz-adv-x="512" 
d="M252 -23q-51 0 -84 33t-33 81t36 82t82 34t85 -34t39 -82t-37 -81t-88 -33z" />
    <glyph glyph-name="slash" unicode="/" horiz-adv-x="569" 
d="M451 1399h127l-461 -1430h-125z" />
    <glyph glyph-name="zero" unicode="0" 
d="M512 1348q143 0 253 -106t161 -259q51 -155 51 -323t-52 -322t-161 -259t-252 -105t-252 104q-109 106 -161 260t-52 323t51 323t161 258q110 106 253 106zM512 1300q-61 0 -101 -19t-78 -81q-75 -123 -75 -566q0 -442 104 -555q35 -38 69 -48q147 -43 231 48
q104 113 104 557t-75 563q-38 61 -78 81t-101 20z" />
    <glyph glyph-name="one" unicode="1" 
d="M856 0h-674v47h250v1141q0 53 -35 69t-127 17h-100v47h98q125 0 350 27v-1301h238v-47z" />
    <glyph glyph-name="two" unicode="2" 
d="M49 0v100l174 172q273 268 377 412t104 273q0 131 -83 227q-84 96 -208 96t-194 -68t-69 -139q0 -6 1 -17t1 -16q52 25 90 25t66 -32q28 -31 28 -77t-31 -79t-82 -33t-91 49t-40 117q0 164 117 251t282 87t295 -92t129 -255q1 -111 -77 -221t-295 -305l-348 -309h544
q72 0 91 30t26 138h57l-28 -334h-836z" />
    <glyph glyph-name="three" unicode="3" 
d="M645 1073q0 113 -63 170t-174 57q-48 0 -102 -19t-54 -58q0 -23 42 -36q42 -14 42 -65t-26 -80t-70 -28q-111 0 -111 121q0 58 65 127q34 38 106 62t171 24q145 0 260 -85t115 -209t-89 -208t-208 -121v-4q371 -76 371 -359q0 -135 -130 -262t-368 -127q-184 0 -278 80
q-93 80 -93 172q0 53 38 92t83 39t80 -26t35 -70q1 -42 -19 -66t-45 -25q-63 -3 -63 -38q0 -49 91 -83t150 -34q164 0 236 94t72 293q0 133 -86 210t-238 77q-35 0 -70 -6t-41 -6q-61 0 -61 33t49 32l100 -10q104 0 183 55q78 55 89 161t11 126z" />
    <glyph glyph-name="four" unicode="4" 
d="M39 362v107l567 879h129v-930h183v160h47v-365h-47v149h-183v-315h148v-47h-475v47h151v315h-520zM559 418v756h-4l-477 -756h481z" />
    <glyph glyph-name="five" unicode="5" 
d="M305 1321h320q140 0 162 24q9 9 16 31h39q0 -94 -39 -143q-47 -63 -164 -64h-379l-22 -397q120 51 280 51t297 -122t137 -281t-112 -292q-128 -155 -413 -155q-151 0 -246 82t-95 176q0 57 33 91t82 32q49 0 80 -28t31 -70q-1 -75 -62 -88q-60 -11 -62 -37q0 -37 88 -77
t148 -40q154 0 240 98t86 280q0 184 -102 275t-242 91q-100 0 -226 -53l33 557q0 59 92 59z" />
    <glyph glyph-name="six" unicode="6" 
d="M565 862q170 0 292 -131t122 -321t-139 -313q-139 -124 -338 -124q-125 -1 -218 55q-157 94 -215 326q-24 92 -24 185q-1 303 225 543t588 266v-48q-258 -37 -406 -174t-186 -397q80 69 145 101t154 32zM256 422q0 -190 48 -294q48 -103 202 -103q197 0 240 195
q22 95 22 249q0 344 -233 344q-146 0 -275 -156q-4 -45 -4 -235z" />
    <glyph glyph-name="seven" unicode="7" 
d="M497 -27q-129 1 -125 169q2 92 83 253l374 774h-577q-37 1 -57 -31t-50 -128h-49l94 311h758v-39q-59 -104 -94 -178l-195 -420q-94 -203 -94 -332q0 -70 27 -136q53 -129 -5 -204q-32 -39 -90 -39z" />
    <glyph glyph-name="eight" unicode="8" 
d="M512 668q-110 0 -186 -76t-76 -242q0 -106 15 -171t79 -111t168 -48q106 0 168 48t78 111q16 64 16 171q0 166 -76 242t-186 76zM512 -27q-225 0 -346 110t-121 251t122 241t277 119v4q-98 9 -212 80q-58 36 -97 100t-39 144q0 137 119 231q119 95 297 95t297 -94
t119 -232q0 -80 -39 -143q-67 -107 -210 -157q-54 -19 -99 -24v-4q156 -18 278 -118t121 -242q0 -141 -121 -251t-346 -110zM512 715q26 0 56 9q175 53 173 292q0 285 -229 284q-229 0 -229 -284q-1 -96 27 -163t72 -93t74 -36q30 -9 56 -9z" />
    <glyph glyph-name="nine" unicode="9" 
d="M45 910q0 190 139 314t338 124q125 0 218 -56q157 -94 215 -325q24 -92 24 -185q1 -304 -225 -544t-588 -265v47q258 36 406 174t186 398q-80 -70 -145 -102t-154 -31q-170 0 -292 131q-122 130 -122 320zM768 900q0 190 -48 293t-202 103q-197 0 -240 -195
q-22 -95 -22 -249q0 -344 233 -344q146 0 275 156q4 46 4 236z" />
    <glyph glyph-name="colon" unicode=":" horiz-adv-x="512" 
d="M252 -23q-51 0 -84 33t-33 81t36 82t82 34t85 -34t39 -82t-37 -81t-88 -33zM252 602q-51 0 -84 33t-33 81t36 82t82 34t85 -34t39 -82t-37 -81t-88 -33z" />
    <glyph glyph-name="semicolon" unicode=";" horiz-adv-x="512" 
d="M252 602q-51 0 -84 33t-33 81t36 82t82 34t85 -34t39 -82t-37 -81t-88 -33zM348 -30q0 58 -24 59q-5 1 -14 -11t-15 -18q-27 -31 -78 -31q-111 0 -111 115q0 51 41 87t107 36t113 -51q47 -52 47 -148t-70 -184t-168 -154l-16 35q102 84 145 145q43 62 43 120z" />
    <glyph glyph-name="less" unicode="&#x3c;" horiz-adv-x="1126" 
d="M1038 72v-131l-950 495v123l950 496v-133l-802 -424z" />
    <glyph glyph-name="equal" unicode="=" horiz-adv-x="1126" 
d="M1038 229h-950v119h950v-119zM1038 647h-950v119h950v-119z" />
    <glyph glyph-name="greater" unicode="&#x3e;" horiz-adv-x="1126" 
d="M88 -59v131l803 426l-803 424v133l950 -496v-123z" />
    <glyph glyph-name="question" unicode="?" horiz-adv-x="909" 
d="M373 -23q-51 0 -84 34t-33 83t36 83t82 34t85 -34t39 -83t-37 -83t-88 -34zM377 393h-47q-10 43 -10 159t60 208q60 94 249 256q45 40 45 110t-66 148t-192 78q-78 0 -147 -45t-68 -84q-1 -17 29 -19q90 -5 100 -86q4 -40 -24 -68t-74 -28t-76 36q-29 36 -29 91
q0 106 95 175t220 69q124 1 226 -97t102 -241q0 -80 -16 -119t-24 -59q-8 -19 -34 -49q-25 -30 -36 -47t-50 -48q-40 -30 -82 -63t-49 -37q-68 -53 -85 -99t-17 -141z" />
    <glyph glyph-name="at" unicode="@" horiz-adv-x="1593" 
d="M1176 358q128 0 206 138t78 288q0 246 -164 407t-434 161t-439 -194t-169 -527q0 -233 172 -413t442 -179q158 0 290 48q44 15 122 50l27 -51q-254 -117 -442 -117q-187 0 -343 67t-246 171t-137 220t-47 224q0 328 221 538t529 210t499 -174q190 -174 191 -439
q0 -112 -44 -222t-135 -190t-208 -79q-61 0 -108 33q-46 32 -62 64t-14 48h-5q-28 -41 -94 -88t-120 -52t-83 3t-67 30t-62 79t-24 150t53 207t155 197t222 83q88 0 135 -109h4l21 84h141l-137 -535q-2 -18 -6 -47q-4 -28 16 -56t66 -28zM668 552q0 -171 129 -171
q75 -1 151 121t94 327q0 145 -114 146q-92 0 -176 -126t-84 -297z" />
    <glyph glyph-name="A" unicode="A" horiz-adv-x="1366" 
d="M446 0h-399v47h162l444 1339h80l422 -1339h143v-47h-516v47h166l-141 451h-391l-146 -451h176v-47zM434 555h352l-168 555h-4z" />
    <glyph glyph-name="B" unicode="B" horiz-adv-x="1251" 
d="M440 1321v-580h176q150 0 205 67t55 222t-62 223q-64 68 -214 68h-160zM440 694v-647h172q176 0 236 71q59 71 59 261q0 191 -86 253t-284 62h-97zM84 0v47h158v1274h-158v47h530q142 0 244 -32t150 -85q87 -96 89 -223q1 -127 -101 -207t-246 -98v-4q188 -19 290 -125
t103 -217q0 -186 -153 -290q-128 -87 -378 -87h-528z" />
    <glyph glyph-name="C" unicode="C" horiz-adv-x="1251" 
d="M1096 1352v-348h-47q-78 348 -365 348q-90 0 -164 -50t-108 -116q-84 -158 -84 -543t94 -501q94 -117 272 -115q139 0 237 98q97 98 140 248h49v-373h-55l-57 84q-135 -115 -322 -115q-274 0 -433 208t-159 508t188 507t412 207q147 0 301 -109l70 62h31z" />
    <glyph glyph-name="D" unicode="D" horiz-adv-x="1366" 
d="M440 1321v-1274h201q111 0 189 39t108 78q31 39 59 98q49 113 49 465t-109 473q-46 51 -133 86t-210 35h-154zM242 47v1274h-158v47h549q291 0 465 -182t174 -496t-213 -540q-145 -150 -430 -150h-545v47h158z" />
    <glyph glyph-name="E" unicode="E" horiz-adv-x="1251" 
d="M61 0v47h181v1274h-181v47h1039v-334h-45q-25 170 -109 228t-239 59h-267v-590q187 0 227 34t53 82t21 103h45v-518h-45q-8 156 -72 201q-65 45 -229 47v-633h248q111 0 172 9q144 21 195 147q27 66 47 180h53l-27 -383h-1067z" />
    <glyph glyph-name="F" unicode="F" horiz-adv-x="1138" 
d="M616 0h-540v47h166v1274h-166v47h999l17 -362h-37q-27 104 -46 155t-59 93t-95 54q-56 12 -155 13h-260v-596q82 0 121 5q39 6 80 26t58 63t26 119h47v-504h-45q-9 150 -71 195t-216 45v-627h176v-47z" />
    <glyph glyph-name="G" unicode="G" horiz-adv-x="1366" 
d="M1147 1354v-350h-47q-31 158 -141 252t-275 96q-90 0 -164 -49t-108 -115q-84 -158 -84 -544t94 -507t272 -121q231 0 271 173q22 93 18 247h-199v49h555v-49h-125q-29 -467 -528 -467q-274 0 -433 208t-159 508t186 507t407 207q220 0 355 -123l72 78h33z" />
    <glyph glyph-name="H" unicode="H" horiz-adv-x="1478" 
d="M444 735h590v586h-160v47h519v-47h-160v-1274h160v-47h-519v47h160v629h-590v-629h160v-47h-518v47h160v1274h-160v47h518v-47h-160v-586z" />
    <glyph glyph-name="I" unicode="I" horiz-adv-x="681" 
d="M616 47v-47h-550v47h176v1274h-176v47h550v-47h-176v-1274h176z" />
    <glyph glyph-name="J" unicode="J" horiz-adv-x="796" 
d="M182 1368h553v-47h-172v-1178q0 -145 -103 -239t-243 -94q-79 0 -145 47t-66 117q0 136 111 137q45 0 76 -30t31 -70q0 -39 -20 -71q-19 -32 -20 -38q0 -33 60 -33t90 38q31 38 31 95v1319h-183v47z" />
    <glyph glyph-name="K" unicode="K" horiz-adv-x="1366" 
d="M598 47v-47h-514v47h158v1274h-158v47h514v-47h-158v-1274h158zM834 1321v47h407v-47h-151l-474 -508l623 -766h96v-47h-520v47h164l-518 668q-6 12 16 35l541 571h-184z" />
    <glyph glyph-name="L" unicode="L" horiz-adv-x="1138" 
d="M74 0v47h168v1274h-168v47h555v-47h-189v-1274h367q113 1 181 105t91 231h39l-22 -383h-1022z" />
    <glyph glyph-name="M" unicode="M" horiz-adv-x="1593" 
d="M242 1321h-154v47h410l288 -1008h5l301 1008h407v-47h-156v-1274h156v-47h-512v47h158v1249h-4l-398 -1296h-53l-383 1296h-4v-1249h154v-47h-369v47h154v1274z" />
    <glyph glyph-name="N" unicode="N" horiz-adv-x="1366" 
d="M238 47v1274h-160v47h399l582 -991h4v944h-160v47h379v-47h-158v-1352h-53l-768 1311h-4v-1233h158v-47h-379v47h160z" />
    <glyph glyph-name="O" unicode="O" horiz-adv-x="1366" 
d="M682 16q202 0 278 164t76 504t-77 504t-277 164t-278 -164q-76 -164 -76 -504t76 -504t278 -164zM682 -31q-170 1 -307 105t-209 267t-72 345t72 344t209 265t307 103t307 -102q137 -104 209 -266t72 -344t-72 -345t-209 -267t-307 -105z" />
    <glyph glyph-name="P" unicode="P" horiz-adv-x="1138" 
d="M426 1321v-657h70q242 0 322 90q42 47 58 106q15 58 15 158t-23 162q-41 113 -201 133q-65 8 -184 8h-57zM66 1321v47h544q262 0 380 -104t118 -252t-129 -264q-65 -60 -183 -96t-272 -36h-98v-569h182v-47h-557v47h176v1274h-161z" />
    <glyph glyph-name="Q" unicode="Q" horiz-adv-x="1366" 
d="M682 14q202 0 278 165t76 505t-77 504t-277 164t-278 -164q-76 -164 -76 -504t76 -505t278 -165zM1155 -410v-43h-59q-264 0 -398 89q-133 89 -133 325v23q-209 46 -340 250t-131 452q0 182 72 344t209 265t307 103t307 -102q137 -104 209 -266t72 -344q0 -246 -131 -448
t-340 -254v-103q1 -155 77 -223t279 -68z" />
    <glyph glyph-name="R" unicode="R" horiz-adv-x="1366" 
d="M440 1321v-559h111q99 0 155 8t110 36q102 53 102 255q0 145 -66 203t-217 57h-195zM602 0h-518v47h158v1274h-158v47h604q301 0 407 -155q46 -67 46 -154q0 -86 -38 -153q-61 -107 -240 -149q-65 -15 -150 -24v-4q98 -25 163 -53q66 -28 120 -81q106 -102 94 -309
q-12 -208 51 -237q53 -37 182 10v-51q-233 -80 -351 7q-65 48 -85 126q-7 28 -22 182t-21 193q-16 95 -78 146q-63 51 -203 53h-123v-668h162v-47z" />
    <glyph glyph-name="S" unicode="S" 
d="M80 -6v352h39q43 -145 147 -237q104 -93 244 -93t245 83q103 83 103 214q0 95 -36 145t-150 95q-25 10 -209 73t-215 81q-166 102 -166 313q0 123 84 233q113 145 317 146q63 0 147 -31t122 -59l77 59h29v-319h-41q-35 135 -126 219t-212 84t-211 -70t-90 -171t80 -155
t194 -82q114 -30 228 -68t194 -133t80 -249q0 -209 -120 -332t-322 -123q-200 0 -315 115l-88 -90h-29z" />
    <glyph glyph-name="T" unicode="T" horiz-adv-x="1138" 
d="M838 0h-539v47h170v1274h-139q-133 0 -183 -95q-36 -70 -53 -158q-16 -87 -18 -95h-53l22 395h1055l14 -395h-53q-18 164 -87 256t-216 92h-90v-1274h170v-47z" />
    <glyph glyph-name="U" unicode="U" horiz-adv-x="1366" 
d="M1118 444q0 -475 -434 -475q-215 -1 -333 101t-118 274v977h-157v47h516v-47h-160v-1016q0 -59 49 -150q27 -50 88 -84t149 -34q247 0 311 193q34 100 34 278v813h-158v47h371v-47h-158v-877z" />
    <glyph glyph-name="V" unicode="V" horiz-adv-x="1366" 
d="M51 1321v47h518v-47h-159l344 -1022h4l329 1022h-186v47h389v-47h-145l-434 -1352h-52l-458 1352h-150z" />
    <glyph glyph-name="W" unicode="W" horiz-adv-x="1820" 
d="M43 1321v47h1237v-47h-104l-158 -432l207 -623h4l340 1055h-160v47h369v-47h-154l-436 -1352h-62l-227 693h-4l-248 -693h-57l-422 1352h-125zM1122 1321h-264l121 -379h4zM694 270l174 478l-194 573h-312l328 -1051h4z" />
    <glyph glyph-name="X" unicode="X" horiz-adv-x="1366" 
d="M465 47v-47h-422v47h172l360 600l-389 674h-143v47h528v-47h-151l289 -481l290 481h-168v47h406v-47h-164l-325 -541l428 -733h137v-47h-531v47h164l-332 551l-327 -551h178z" />
    <glyph glyph-name="Y" unicode="Y" horiz-adv-x="1366" 
d="M887 1321v47h422v-47h-164l-357 -686v-588h183v-47h-561v47h180v588l-395 686h-152v47h553v-47h-180l346 -614l328 614h-203z" />
    <glyph glyph-name="Z" unicode="Z" horiz-adv-x="1138" 
d="M635 47q176 0 253 71t109 267h56l-23 -385h-997v84l790 1237h-379q-143 0 -195 -53t-108 -232h-47l21 332h934v-65l-793 -1256h379z" />
    <glyph glyph-name="bracketleft" unicode="[" horiz-adv-x="569" 
d="M528 -367v-47h-428v1782h428v-47h-280v-1688h280z" />
    <glyph glyph-name="backslash" unicode="\" horiz-adv-x="569" 
d="M-8 1399h125l461 -1430h-127z" />
    <glyph glyph-name="bracketright" unicode="]" horiz-adv-x="569" 
d="M41 -414v47h281v1688h-281v47h428v-1782h-428z" />
    <glyph glyph-name="asciicircum" unicode="^" horiz-adv-x="1126" 
d="M262 543h-127l375 778h106l375 -778h-127l-301 628z" />
    <glyph glyph-name="underscore" unicode="_" 
d="M1024 -256h-1024v102h1024v-102z" />
    <glyph glyph-name="grave" unicode="`" horiz-adv-x="569" 
d="M-12 1167q0 35 20 55t48 19q28 0 75 -47l305 -297h-71l-273 166q-39 25 -55 36q-49 33 -49 68z" />
    <glyph glyph-name="a" unicode="a" horiz-adv-x="909" 
d="M584 238v190q-360 -6 -361 -213q0 -74 43 -118t124 -44t149 60q45 45 45 125zM309 -27q-240 0 -239 201q4 141 140 219t374 78v195q0 66 -43 96t-103 29q-60 1 -126 -17q-67 -18 -66 -57q0 -2 30 -28q30 -25 31 -65q-1 -40 -23 -64t-62 -24t-62 28q-22 26 -23 71
q0 70 82 133t263 63t228 -71q24 -37 28 -62t5 -67v-488q-1 -64 11 -79t32 -15q45 0 72 92h35q-4 -71 -54 -119t-120 -49q-109 0 -133 125q-100 -125 -277 -125z" />
    <glyph glyph-name="b" unicode="b" 
d="M743 152q27 64 27 234t-24 252q-24 83 -68 118q-45 35 -126 35q-82 0 -150 -72q-68 -73 -75 -147t-8 -263q0 -90 29 -153t72 -91q72 -47 132 -48t97 15q57 26 94 120zM326 688h4q31 57 96 100q66 43 135 43q195 0 295 -133t100 -308t-114 -296t-279 -121q-75 0 -139 43
t-102 109h-5v-141q-248 16 -268 16v49h117v1315h-117v47h47q136 1 230 19v-742z" />
    <glyph glyph-name="c" unicode="c" horiz-adv-x="909" 
d="M706 504q-42 0 -69 26t-27 66q0 38 16 62t33 35q16 11 17 20q0 37 -62 57t-112 21q-140 1 -194 -99t-54 -279t46 -284t198 -113q90 -4 168 62t114 176h43q-41 -127 -117 -201t-225 -80q-113 0 -197 42t-129 109q-89 136 -88 247q3 289 217 406q98 54 205 54t208 -55
t102 -164q0 -44 -26 -76q-25 -32 -67 -32z" />
    <glyph glyph-name="d" unicode="d" 
d="M858 47h113v-47q-168 0 -271 -16v137h-4q-86 -147 -268 -148q-154 0 -257 127q-103 126 -103 306t102 303t279 122q63 1 134 -35t111 -120h4v688h-137v47h68q135 0 229 19v-1383zM461 16q76 0 140 56t85 113q20 59 20 201t-14 189q-57 215 -241 216q-55 0 -95 -25
q-40 -26 -58 -58q-44 -75 -44 -294q0 -220 42 -309t165 -89z" />
    <glyph glyph-name="e" unicode="e" horiz-adv-x="909" 
d="M653 526v70q0 195 -188 195q-106 0 -169 -103q-29 -47 -34 -162h391zM462 831q169 0 272 -100t106 -264h-580v-84q0 -166 41 -258q50 -109 209 -109q90 0 176 70t107 168h45q-63 -281 -372 -281q-151 0 -275 115q-123 115 -123 292t112 314q113 137 282 137z" />
    <glyph glyph-name="f" unicode="f" horiz-adv-x="569" 
d="M330 811h166v-47h-166v-717h166v-47h-484v47h158v717h-158v47h158v100q0 252 93 375t249 123q70 0 121 -33t51 -100q0 -29 -24 -48q-24 -20 -58 -20t-56 26t-22 52t8 40q8 13 9 28q0 12 -49 12q-74 0 -118 -86t-44 -238v-231z" />
    <glyph glyph-name="g" unicode="g" horiz-adv-x="909" 
d="M442 791q-80 -1 -116 -53t-35 -191q0 -215 131 -215q107 0 133 64q27 64 27 169q-1 226 -140 226zM439 -418q97 0 170 22q120 36 163 112q29 52 29 94q-1 98 -57 139t-240 41q-84 0 -149 -26t-97 -66q-62 -76 -63 -154t73 -120t171 -42zM197 129h219q210 0 280 -15
t123 -76t53 -161q0 -174 -124 -258t-308 -84t-280 67t-97 146q0 164 240 225v7q-138 19 -181 58q-42 39 -42 118q0 125 205 157v4q-154 76 -154 232q0 109 77 195t218 87q176 0 256 -118q49 115 130 115t81 -70q0 -33 -17 -56q-17 -22 -43 -22t-49 31q-24 31 -32 31t-24 -17
q-16 -15 -15 -27q0 -12 14 -59t14 -97q1 -50 -25 -103q-40 -82 -130 -121q-30 -13 -56 -16t-139 -16q-211 -24 -237 -76q-25 -42 5 -68q15 -13 38 -13z" />
    <glyph glyph-name="h" unicode="h" 
d="M162 47v1317h-113v47h43q135 0 230 19v-816h4q96 217 286 217q164 0 217 -94q27 -45 27 -110v-580h111v-47h-377v47h106v553q0 104 -30 138q-31 34 -99 34q-100 0 -173 -110t-72 -234v-381h110v-47h-383v47h113z" />
    <glyph glyph-name="i" unicode="i" horiz-adv-x="569" 
d="M281 1352q39 0 71 -30t33 -73q0 -43 -30 -73q-29 -30 -73 -31t-72 31t-28 74t30 72t69 30zM483 0h-417v47h137v717h-137v47h67q147 0 229 20v-784h121v-47z" />
    <glyph glyph-name="j" unicode="j" horiz-adv-x="569" 
d="M412 1249q0 -43 -30 -73t-74 -31t-72 31t-27 74q0 42 30 72q31 30 69 30t71 -30t33 -73zM389 4q0 -256 -146 -396q-77 -73 -182 -73q-51 0 -93 30t-42 81q0 70 94 69q23 0 40 -18t22 -43q12 -55 51 -55q96 0 96 237v928h-137v47h68q147 0 229 20v-827z" />
    <glyph glyph-name="k" unicode="k" 
d="M453 0h-390v47h107v1317h-107v47h37q135 0 230 19v-1383h123v-47zM678 764h-121v47h336v-47h-125l-283 -246l389 -471h87v-47h-390v47h103l-342 416l346 295v6z" />
    <glyph glyph-name="l" unicode="l" horiz-adv-x="569" 
d="M516 0h-475v47h158v1317h-158v47h88q135 0 229 19v-1383h158v-47z" />
    <glyph glyph-name="m" unicode="m" horiz-adv-x="1478" 
d="M1329 47h103v-47h-377v47h114v582q1 71 -31 107t-83 36q-90 0 -160 -100t-70 -195v-430h109v-47h-377v47h109v582q0 71 -32 107t-83 36q-92 0 -161 -108t-68 -230v-387h114v-47h-377v47h103v717h-103v47h33q147 0 230 20v-194h4q44 71 72 105t80 62t133 28t141 -52
q60 -51 69 -141h4q113 193 283 192q75 0 138 -39q85 -54 83 -200v-545z" />
    <glyph glyph-name="n" unicode="n" 
d="M102 811q141 0 230 20v-217h4q96 217 287 217q162 0 217 -94q27 -45 26 -110v-580h111v-47h-377v47h107v553q0 104 -31 138t-98 34q-100 0 -174 -110q-73 -111 -72 -234v-381h110v-47h-383v47h113v717h-113v47h43z" />
    <glyph glyph-name="o" unicode="o" horiz-adv-x="909" 
d="M455 791q-59 0 -101 -26q-42 -25 -63 -59t-33 -106t-12 -170q0 -256 37 -318q58 -98 172 -98q59 0 101 26t62 60q46 77 46 303t-46 303q-20 34 -62 60t-101 25zM455 831q163 -1 279 -123t116 -306t-116 -306q-116 -123 -280 -123t-279 123q-116 123 -116 306t116 306
t280 123z" />
    <glyph glyph-name="p" unicode="p" 
d="M326 384q0 -116 8 -160t33 -92t82 -83t106 -35t78 8t65 40q72 64 72 306t-48 328t-163 86q-44 0 -99 -31q-56 -31 -86 -79t-39 -110t-9 -178zM88 811q145 0 234 20v-159l4 2q39 74 105 116q120 75 272 14t217 -214q37 -90 36 -205q0 -164 -104 -288t-274 -124t-248 138
h-4v-527h139v-47h-420v47h121v1180h-121v47h43z" />
    <glyph glyph-name="q" unicode="q" 
d="M254 396q0 -216 48 -296t155 -80q58 0 135 41q45 25 75 86t29 152l2 121q0 117 -14 176t-75 123q-61 63 -158 63t-139 -78t-50 -155q-8 -79 -8 -153zM944 811h29v-47h-119v-1180h119v-47h-414v47h135v525h-4q-76 -135 -258 -136q-152 0 -258 123t-106 293q0 117 37 207
q39 90 97 138q121 99 234 97q86 0 158 -45t102 -122h4v167q70 -20 244 -20z" />
    <glyph glyph-name="r" unicode="r" horiz-adv-x="681" 
d="M528 766q0 12 -18 12t-57 -40q-40 -40 -60 -81q-51 -106 -51 -221v-389h158v-47h-457v47h139v717h-139v47h63q148 0 230 20v-192h4q31 78 92 135q62 57 128 57q139 0 136 -114q0 -35 -30 -55t-62 -20t-58 25q-26 26 -26 56z" />
    <glyph glyph-name="s" unicode="s" horiz-adv-x="796" 
d="M627 811v-229h-45q-51 201 -224 209q-57 3 -99 -17q-41 -20 -67 -61t-26 -74t16 -51q40 -45 314 -101q116 -25 164 -79t48 -169q0 -114 -84 -190q-85 -76 -220 -76t-226 101l-45 -74h-45v270h47q31 -116 106 -186t167 -70t154 50t63 126q0 56 -68 90t-212 70t-185 64
q-72 51 -72 150t53 173q69 95 233 95q88 0 181 -76l37 55h35z" />
    <glyph glyph-name="t" unicode="t" horiz-adv-x="569" 
d="M37 764v47h121v252q104 0 155 8v-260h181v-47h-181v-627q0 -27 2 -42q1 -15 21 -33t61 -17q41 0 75 38q11 11 34 38l33 -23q-29 -55 -93 -90t-146 -35q-83 0 -115 45t-31 134v612h-117z" />
    <glyph glyph-name="u" unicode="u" 
d="M963 47v-47h-43q-94 0 -224 -14v166h-4q-41 -84 -119 -132t-178 -49q-242 0 -241 199v594h-111v47h41q147 0 229 20v-643q0 -152 125 -151q106 0 177 78t71 190v459h-117v47h47q147 0 230 20v-784h117z" />
    <glyph glyph-name="v" unicode="v" horiz-adv-x="909" 
d="M39 764v47h369v-47h-109l199 -588h4l207 588h-125v47h278v-47h-98l-283 -791h-69l-275 791h-98z" />
    <glyph glyph-name="w" unicode="w" horiz-adv-x="1251" 
d="M14 764v47h394v-47h-121l166 -545h4l184 592h68l192 -592h4l160 545h-141v47h305v-47h-113l-231 -791h-58l-204 607h-5l-186 -607h-65l-236 791h-117z" />
    <glyph glyph-name="x" unicode="x" horiz-adv-x="909" 
d="M322 47v-47h-297v47h122l234 336l-248 381h-108v47h383v-47h-111l168 -256l176 256h-115v47h293v-47h-117l-208 -297l278 -420h100v-47h-378v47h106l-190 293l-199 -293h111z" />
    <glyph glyph-name="y" unicode="y" horiz-adv-x="909" 
d="M868 764h-102l-328 -901q-63 -172 -117 -250t-145 -78q-34 0 -66 28q-32 27 -32 65t24 62q25 24 60 24q60 -1 88 -57q10 -19 24 -19q39 0 160 362l-313 764h-96v47h393v-47h-131l227 -551l195 551h-131v47h290v-47z" />
    <glyph glyph-name="z" unicode="z" horiz-adv-x="796" 
d="M102 545v266h615v-51l-475 -713h258q72 1 110 63t64 187h39v-297h-662v45l479 719h-182q-90 0 -134 -39t-64 -180h-48z" />
    <glyph glyph-name="braceleft" unicode="{" horiz-adv-x="681" 
d="M559 -428q-145 0 -221 64t-76 253v330q0 119 -25 174q-26 55 -116 86q90 29 116 84t25 174v330q0 188 76 253t221 64v-24q-90 -25 -120 -88t-29 -193v-309q0 -124 -39 -192t-142 -97v-4q102 -29 142 -97q39 -69 39 -194v-309q0 -127 30 -190t119 -90v-25z" />
    <glyph glyph-name="bar" unicode="|" horiz-adv-x="454" 
d="M168 1536h119v-2048h-119v2048z" />
    <glyph glyph-name="braceright" unicode="}" horiz-adv-x="681" 
d="M123 1384q145 0 221 -64t76 -253v-330q0 -119 26 -174t115 -84q-90 -31 -116 -86t-25 -174v-330q0 -188 -76 -253t-221 -64v25q90 27 120 90t29 190v309q0 125 39 194t142 97v4q-102 29 -142 97q-39 68 -39 192v309q0 129 -29 193q-30 63 -120 88v24z" />
    <glyph glyph-name="asciitilde" unicode="~" horiz-adv-x="1126" 
d="M780 365q-84 1 -212 73t-233 72t-171 -154l-74 90q90 182 256 183q84 0 238 -72t196 -72q71 0 131 78q21 27 52 76l73 -90q-56 -86 -114 -135t-142 -49z" />
    <glyph glyph-name="uni00A0" unicode="&#xa0;" horiz-adv-x="512" 
 />
    <glyph glyph-name="exclamdown" unicode="&#xa1;" horiz-adv-x="569" 
d="M281 731q-51 0 -84 34t-33 83t36 83t82 34t85 -34t39 -83t-37 -83t-88 -34zM401 -315q0 -57 -30 -99q-31 -41 -86 -41t-86 41t-31 99q0 12 20 136q64 397 74 711h45q10 -318 74 -711q20 -124 20 -136z" />
    <glyph glyph-name="cent" unicode="&#xa2;" 
d="M127 378q0 100 32 183q32 82 79 130q131 134 299 134q53 0 96 -10l96 270h66l-101 -286q164 -57 164 -191q0 -43 -26 -76q-26 -32 -67 -32q-42 0 -69 26t-26 77q1 52 49 84q16 11 16 20q0 35 -55 51l-250 -709q61 -33 138 -36t156 63t116 174h43q-41 -125 -118 -199
t-224 -78q-72 0 -131 19l-99 -279h-65l104 299q-115 54 -169 160t-54 206zM561 784q-141 0 -194 -98t-54 -309q0 -86 19 -169t47 -112l239 682q-31 6 -57 6z" />
    <glyph glyph-name="sterling" unicode="&#xa3;" 
d="M221 246q-49 0 -75 -34t-26 -84t30 -79q28 -29 78 -29t98 38q46 39 71 94q-84 94 -176 94zM909 399h43q0 -241 -72 -335t-210 -95q-102 0 -228 133q-61 -72 -107 -102t-120 -29q-74 0 -116 35t-51 68t-9 63q0 82 51 125t122 43q71 -1 134 -27q64 -26 80 -32q10 66 10 112
t-21 112q-21 65 -63 179h-227v56h207q-60 139 -60 255t76 239q39 61 114 103t177 42t190 -66t89 -182q0 -47 -30 -83t-77 -36q-47 -1 -78 25t-31 79t58 86q10 5 25 7t23 5q7 3 7 13q0 47 -60 75t-112 27q-94 0 -153 -64q-58 -65 -58 -163q0 -37 52 -191t57 -171h237v-56
h-225q8 -57 8 -131q0 -158 -59 -307q150 -47 240 -47t128 59q39 59 39 176z" />
    <glyph glyph-name="currency" unicode="&#xa4;" 
d="M190 657q0 -133 94 -227t228 -94q133 0 227 94t95 227q0 133 -94 227t-228 95q-134 -1 -228 -95t-94 -227zM72 655q0 147 90 269l-199 198l84 84l199 -198q116 90 266 90t266 -90l199 198l84 -84l-199 -198q90 -121 90 -269t-90 -264l199 -198l-84 -84l-201 200
q-114 -92 -266 -92t-262 92l-201 -200l-84 84l201 200q-92 115 -92 262z" />
    <glyph glyph-name="yen" unicode="&#xa5;" 
d="M809 0h-563v49h200v365h-364v49h364v174l-20 39h-344v49h317l-301 547h-141v49h492v-49h-168l301 -570l288 570h-182v49h381v-49h-141l-279 -547h293v-49h-317l-19 -39v-174h336v-49h-336v-365h203v-49z" />
    <glyph glyph-name="brokenbar" unicode="&#xa6;" horiz-adv-x="454" 
d="M168 358h119v-716h-119v716zM168 1382h119v-716h-119v716z" />
    <glyph glyph-name="section" unicode="&#xa7;" 
d="M622 289q70 0 108 46q38 47 38 119t-158 212q-133 125 -227 125q-51 1 -92 -45t-41 -85q0 -71 26 -107t37 -53q29 -42 133 -124l37 -31q69 -57 139 -57zM516 -324q-115 0 -208 56t-93 159q0 43 32 75t74 36q41 4 73 -27t32 -67t-35 -71q-35 -34 -35 -44q0 -33 56 -55
t112 -21q56 0 105 42q49 43 49 111q0 123 -145 228q-145 106 -226 178q-160 143 -160 299q0 127 76 194t191 67l4 4q-90 72 -139 140t-49 178q0 108 84 174t194 67t189 -57t79 -156q0 -43 -30 -74t-72 -31t-71 26q-28 26 -28 66q0 39 35 73t35 44q0 31 -47 49
q-48 19 -100 19t-104 -43t-52 -107t55 -128t134 -126t157 -127q78 -67 133 -151t55 -190t-69 -174q-70 -69 -193 -68v-4q70 -68 98 -98t56 -88t27 -126q0 -106 -82 -179t-197 -73z" />
    <glyph glyph-name="dieresis" unicode="&#xa8;" horiz-adv-x="569" 
d="M580 1028q0 -38 -29 -66t-69 -28t-66 27t-27 67q0 40 27 70q26 28 66 28t69 -30t29 -68zM84 934q-39 0 -67 27q-27 27 -27 67t26 70q27 28 67 28t69 -30q28 -30 28 -68t-28 -66t-68 -28z" />
    <glyph glyph-name="copyright" unicode="&#xa9;" horiz-adv-x="1638" 
d="M862 289q-194 0 -320 101t-126 310q0 146 123 274t333 128q94 0 155 -20t63 -21q43 -14 43 -43v-146h-31q-8 78 -64 134t-186 55q-131 0 -201 -95q-69 -95 -71 -263t71 -271q74 -102 232 -102q180 0 252 176h30l-32 -144q0 -23 -54 -38q-100 -35 -217 -35zM215 682
q0 -256 175 -444t430 -189t429 187t174 445t-174 447t-430 190t-430 -190t-174 -446zM820 -31q-304 0 -513 208t-209 505t209 507t513 210t512 -210t208 -507t-208 -505t-512 -208z" />
    <glyph glyph-name="ordfeminine" unicode="&#xaa;" horiz-adv-x="573" 
d="M352 989v111q-215 -6 -215 -123q0 -94 92 -94q59 0 103 35q20 14 20 71zM485 1217v-283q0 -31 4 -42t25 -11q31 0 47 53h23q-4 -45 -39 -76t-99 -31t-84 82q-62 -79 -202 -81q-60 0 -106 31t-45 103t99 122t244 51v100q0 72 -86 72q-35 -1 -75 -11t-39 -30q0 -2 20 -18
t20 -36q0 -22 -18 -36q-20 -14 -50 -14t-52 16t-21 48t59 74t164 48q149 -4 180 -46t31 -85z" />
    <glyph glyph-name="guillemotleft" unicode="&#xab;" 
d="M852 148q0 -16 -12 -17q-14 0 -60 43t-114 110q-70 67 -98 90q-28 22 -40 32t-17 13t-12 10t-7 13q0 9 50 47t238 222q44 43 58 43t14 -18t-75 -126q-75 -109 -134 -168q59 -59 134 -168q75 -110 75 -126zM517 754q13 0 13 -18t-74 -126q-74 -109 -134 -168
q59 -59 134 -168q74 -110 74 -126t-12 -17q-14 0 -59 43t-115 110t-98 90q-28 22 -40 32q-10 10 -16 13t-13 10t-7 15t38 35q38 28 251 232q45 43 58 43z" />
    <glyph glyph-name="logicalnot" unicode="&#xac;" horiz-adv-x="1126" 
d="M920 186v461h-832v119h950v-580h-118z" />
    <glyph glyph-name="uni00AD" unicode="&#xad;" horiz-adv-x="681" 
d="M592 375h-502v137h502v-137z" />
    <glyph glyph-name="registered" unicode="&#xae;" horiz-adv-x="1638" 
d="M215 682q0 -256 175 -444t430 -189t429 187t174 445t-174 447t-430 190t-430 -190t-174 -446zM820 -31q-304 0 -513 208t-209 505t209 507t513 210t512 -210t208 -507t-208 -505t-512 -208zM713 1036v-350h96q76 0 115 51t39 142q0 158 -160 157h-90zM487 1077h357
q102 0 174 -49t72 -135q0 -159 -170 -225l120 -164q102 -141 164 -176v-19h-123q-31 0 -61 33t-91 134q-62 101 -108 167h-108v-199q0 -72 11 -83t91 -19v-33h-328v33q78 8 90 19q11 11 11 83v498q0 72 -12 84t-89 21v30z" />
    <glyph glyph-name="macron" unicode="&#xaf;" horiz-adv-x="569" 
d="M12 979v102h545v-102h-545z" />
    <glyph glyph-name="degree" unicode="&#xb0;" horiz-adv-x="819" 
d="M410 762q-123 0 -208 85t-85 208t85 208t208 85q124 0 208 -85t84 -208t-84 -208t-208 -85zM410 827q90 0 153 68t64 160q1 91 -63 159t-154 68t-154 -68t-63 -160q-1 -92 63 -159q64 -68 154 -68z" />
    <glyph glyph-name="plusminus" unicode="&#xb1;" horiz-adv-x="1126" 
d="M504 664v331h119v-331h415v-119h-415v-332h-119v332h-416v119h416zM1038 0h-950v119h950v-119z" />
    <glyph glyph-name="twosuperior" unicode="&#xb2;" horiz-adv-x="614" 
d="M12 539v71l113 103q174 163 233 239q60 76 60 155t-44 136t-117 57t-121 -43t-48 -86v-18q36 14 60 14t42 -19t18 -47t-24 -47q-26 -20 -60 -20t-65 33t-30 78q0 98 81 150q80 53 192 53t203 -54t91 -164q0 -66 -52 -129t-194 -178l-196 -157v-4h307q47 0 59 17t17 81h47
l-19 -221h-553z" />
    <glyph glyph-name="threesuperior" unicode="&#xb3;" horiz-adv-x="614" 
d="M375 1169q0 76 -34 108t-82 32q-111 0 -109 -45q0 -10 28 -22t27 -41q0 -28 -22 -46t-50 -18q-84 0 -84 82q0 61 93 103q56 26 146 26t175 -52q84 -52 84 -125q0 -75 -55 -125t-134 -69v-4q236 -41 236 -215q0 -80 -93 -158t-233 -78t-204 51t-64 113q0 30 29 54t59 24
t58 -16t28 -43t-13 -40t-29 -14q-42 0 -42 -22q0 -31 54 -49t94 -19q98 0 138 49t40 170q0 160 -189 160q-23 0 -47 -8t-30 -8q-8 0 -18 2q-27 6 -28 49q0 29 43 29l66 -17q162 0 162 182z" />
    <glyph glyph-name="acute" unicode="&#xb4;" horiz-adv-x="569" 
d="M513 1241q28 0 48 -19t21 -55t-50 -68q-16 -11 -55 -36l-272 -166h-72l305 297q47 47 75 47z" />
    <glyph glyph-name="mu" unicode="&#xb5;" 
d="M963 49v-49h-43q-94 0 -224 -14v166h-4q-41 -84 -119 -132t-171 -49q-93 0 -138 37q-31 -86 28 -222q36 -83 36 -132t-27 -84t-80 -35q-98 0 -98 162q0 57 15 205t16 243v619h-111v47h41q147 0 229 20v-643q0 -152 125 -151q106 0 177 78t71 190v459h-117v47h47
q147 0 230 20v-782h117z" />
    <glyph glyph-name="paragraph" unicode="&#xb6;" horiz-adv-x="1228" 
d="M625 1321v-1727h125v1727h-125zM506 557v764q-135 0 -183 -85q-49 -85 -49 -292t48 -297t184 -90zM1036 1368v-47h-168v-1727h168v-47h-698v47h168v916q-205 0 -318 121t-112 323q0 414 452 414h508z" />
    <glyph glyph-name="periodcentered" unicode="&#xb7;" horiz-adv-x="512" 
d="M252 381q-51 0 -84 33t-33 81t36 82q36 33 82 33t85 -34t39 -81q0 -48 -37 -81t-88 -33z" />
    <glyph glyph-name="cedilla" unicode="&#xb8;" horiz-adv-x="569" 
d="M338 -123q39 0 90 -36q51 -37 51 -117q1 -80 -73 -120t-172 -40t-171 30l29 62q88 -25 128 -25q40 1 78 21t38 62t-29 62q-40 28 -121 11l-36 10l90 203h71l-61 -135q49 12 88 12z" />
    <glyph glyph-name="onesuperior" unicode="&#xb9;" horiz-adv-x="614" 
d="M530 539h-436v41h146v661q0 33 -14 41t-76 8h-64v41h64q55 0 243 17v-768h137v-41z" />
    <glyph glyph-name="ordmasculine" unicode="&#xba;" horiz-adv-x="573" 
d="M287 1313q-89 0 -110 -77q-15 -55 -15 -127q0 -116 15 -170q21 -75 109 -76q89 -1 110 76q16 58 16 130q0 71 -2 99q-7 95 -52 126q-26 19 -71 19zM287 1348q113 0 195 -76t81 -184q0 -108 -82 -185q-83 -76 -195 -76t-194 76q-82 77 -82 185t82 184t195 76z" />
    <glyph glyph-name="guillemotright" unicode="&#xbb;" 
d="M172 736q0 17 12 18q14 0 60 -43t114 -110q70 -67 98 -90t40 -33t17 -12q5 -3 12 -10q7 -8 7 -14q0 -8 -50 -46t-238 -222q-44 -43 -58 -43q-14 -1 -14 17t75 126t134 168q-59 59 -134 168t-75 126zM507 131q-13 -1 -13 17t74 126t134 168q-59 59 -134 168
q-74 109 -74 126t12 18q14 0 59 -43t115 -110t98 -90t40 -33q10 -10 16 -12q6 -3 13 -10t7 -15t-38 -35q-38 -28 -251 -232q-45 -43 -58 -43z" />
    <glyph glyph-name="onequarter" unicode="&#xbc;" horiz-adv-x="1536" 
d="M530 539h-436v41h146v661q0 33 -14 41t-76 8h-64v41h64q55 0 243 17v-768h137v-41zM242 -27l923 1375h103l-924 -1375h-102zM774 209v74l369 544h114v-577h119v96h41v-229h-41v92h-119v-168h97v-41h-330v41h98v168h-348zM1122 250v448h-4l-307 -448h311z" />
    <glyph glyph-name="onehalf" unicode="&#xbd;" horiz-adv-x="1536" 
d="M881 0v72l112 102q174 162 234 239q59 77 59 155t-44 136t-117 58t-121 -43t-48 -86v-19q72 29 103 -5q18 -19 18 -47q-1 -28 -25 -47t-59 -19t-65 32t-31 78q0 98 81 150q80 52 192 53q112 0 203 -54t91 -163q0 -66 -52 -129t-193 -178l-197 -158v-4h307q47 0 60 17
q12 17 16 81h47l-18 -221h-553zM530 539h-436v41h146v661q0 33 -14 41t-76 8h-64v41h64q55 0 243 17v-768h137v-41zM242 -27l923 1375h103l-924 -1375h-102z" />
    <glyph glyph-name="threequarters" unicode="&#xbe;" horiz-adv-x="1536" 
d="M375 1169q0 76 -34 108t-82 32q-111 0 -109 -45q0 -10 28 -22t27 -41q0 -28 -22 -46t-50 -18q-84 0 -84 82q0 61 93 103q56 26 146 26t175 -52q84 -52 84 -125q0 -75 -55 -125t-134 -69v-4q236 -41 236 -215q0 -80 -93 -158t-233 -78t-204 51t-64 113q0 30 29 54t59 24
t58 -16t28 -43t-13 -40t-29 -14q-42 0 -42 -22q0 -31 54 -49t94 -19q98 0 138 49t40 170q0 160 -189 160q-23 0 -47 -8t-30 -8q-8 0 -18 2q-27 6 -28 49q0 29 43 29l66 -17q162 0 162 182zM242 -27l923 1375h103l-924 -1375h-102zM774 209v74l369 544h114v-577h119v96h41
v-229h-41v92h-119v-168h97v-41h-330v41h98v168h-348zM1122 250v448h-4l-307 -448h311z" />
    <glyph glyph-name="questiondown" unicode="&#xbf;" horiz-adv-x="909" 
d="M537 965q51 0 84 -34t33 -83t-37 -83q-35 -34 -81 -34t-85 34t-39 83t37 83t88 34zM532 549h48q10 -43 10 -159t-60 -208q-60 -94 -249 -256q-45 -40 -45 -110t66 -148t192 -78q78 0 146 45t69 84q0 17 -30 19t-62 18q-33 16 -37 62t24 74t74 28q47 0 76 -36t28 -91
q0 -106 -95 -175t-220 -69q-125 -1 -226 97t-102 241q1 81 17 120t24 59t33 49t37 47q12 17 51 47t81 63t48 37q68 53 85 99t17 141z" />
    <glyph glyph-name="Agrave" unicode="&#xc0;" horiz-adv-x="1366" 
d="M387 1704q1 35 21 54q20 20 48 20t74 -47l306 -297h-72l-272 165q-39 25 -56 36q-49 34 -49 69zM446 0h-399v47h162l444 1339h80l422 -1339h143v-47h-516v47h166l-141 451h-391l-146 -451h176v-47zM434 555h352l-168 555h-4z" />
    <glyph glyph-name="Aacute" unicode="&#xc1;" horiz-adv-x="1366" 
d="M912 1778q28 0 48 -20t21 -54q0 -35 -49 -69q-16 -11 -55 -36l-273 -165h-72l306 297q46 47 74 47zM446 0h-399v47h162l444 1339h80l422 -1339h143v-47h-516v47h166l-141 451h-391l-146 -451h176v-47zM434 555h352l-168 555h-4z" />
    <glyph glyph-name="Acircumflex" unicode="&#xc2;" horiz-adv-x="1366" 
d="M629 1774h114l248 -340h-65l-240 215l-240 -215h-69zM446 0h-399v47h162l444 1339h80l422 -1339h143v-47h-516v47h166l-141 451h-391l-146 -451h176v-47zM434 555h352l-168 555h-4z" />
    <glyph glyph-name="Atilde" unicode="&#xc3;" horiz-adv-x="1366" 
d="M832 1483q-76 0 -160 47q-94 47 -133 47t-70 -28t-39 -66h-55q16 88 72 144t145 56q43 0 135 -47t137 -47t70 26q24 26 47 77h59q-20 -88 -76 -148t-132 -61zM446 0h-399v47h162l444 1339h80l422 -1339h143v-47h-516v47h166l-141 451h-391l-146 -451h176v-47zM434 555
h352l-168 555h-4z" />
    <glyph glyph-name="Adieresis" unicode="&#xc4;" horiz-adv-x="1366" 
d="M892 1470q-40 0 -67 27t-26 68t27 69t66 29q40 0 69 -30q29 -31 29 -69t-30 -66q-28 -28 -68 -28zM494 1470q-39 0 -67 27t-28 68t27 69t67 29q41 0 69 -30q28 -31 28 -69t-28 -66t-68 -28zM446 0h-399v47h162l444 1339h80l422 -1339h143v-47h-516v47h166l-141 451h-391
l-146 -451h176v-47zM434 555h352l-168 555h-4z" />
    <glyph glyph-name="Aring" unicode="&#xc5;" horiz-adv-x="1366" 
d="M683 1417q-83 -1 -140 57t-58 142q1 84 59 141t140 57t140 -58t58 -140t-58 -140t-141 -59zM684 1753q-57 0 -97 -40t-40 -98t40 -97t97 -39t97 40t40 97t-40 97t-97 40zM446 0h-399v47h162l444 1339h80l422 -1339h143v-47h-516v47h166l-141 451h-391l-146 -451h176v-47z
M434 555h352l-168 555h-4z" />
    <glyph glyph-name="AE" unicode="&#xc6;" horiz-adv-x="1820" 
d="M831 543v774h-38l-383 -774h421zM317 47v-47h-350v47h137l480 969q43 86 43 153t-39 99q-39 33 -90 41q-50 8 -90 12v47h1261v-334h-45q-27 170 -111 228t-239 59h-244v-590q186 0 224 34t50 82q11 48 15 103h45v-518h-45q-1 156 -63 201t-226 47v-633h225q113 0 175 9
t113 45q52 36 79 102t47 180h55l-28 -383h-1051v47h186v438h-452l-215 -438h153z" />
    <glyph glyph-name="Ccedilla" unicode="&#xc7;" horiz-adv-x="1251" 
d="M1096 1352v-348h-47q-78 348 -365 348q-90 0 -164 -50t-108 -116q-84 -158 -84 -543t94 -501q94 -117 272 -115q139 0 237 98q97 98 140 248h49v-373h-55l-57 84q-135 -115 -322 -115q-33 0 -45 2l-49 -106q49 12 88 12t90 -36q51 -37 51 -117q1 -80 -73 -120t-174 -40
t-168 30l28 62q88 -25 128 -25q40 1 78 21t38 62t-29 62q-40 28 -121 11l-36 10l81 185q-223 42 -351 240t-128 480t188 490q188 207 412 207q147 0 301 -109l70 62h31z" />
    <glyph glyph-name="Egrave" unicode="&#xc8;" horiz-adv-x="1251" 
d="M330 1713q0 26 20 45q20 20 48 20t75 -47l305 -297h-71l-273 165q-39 25 -55 36q-17 11 -33 31t-16 47zM61 0v47h181v1274h-181v47h1039v-334h-45q-25 170 -109 228t-239 59h-267v-590q187 0 227 34t53 82t21 103h45v-518h-45q-8 156 -72 201q-65 45 -229 47v-633h248
q111 0 172 9q144 21 195 147q27 66 47 180h53l-27 -383h-1067z" />
    <glyph glyph-name="Eacute" unicode="&#xc9;" horiz-adv-x="1251" 
d="M855 1778q28 0 48 -20t21 -53q1 -34 -50 -70q-16 -11 -55 -36l-272 -165h-72l305 297q47 47 75 47zM61 0v47h181v1274h-181v47h1039v-334h-45q-25 170 -109 228t-239 59h-267v-590q187 0 227 34t53 82t21 103h45v-518h-45q-8 156 -72 201q-65 45 -229 47v-633h248
q111 0 172 9q144 21 195 147q27 66 47 180h53l-27 -383h-1067z" />
    <glyph glyph-name="Ecircumflex" unicode="&#xca;" horiz-adv-x="1251" 
d="M571 1774h115l248 -340h-66l-239 215l-240 -215h-70zM61 0v47h181v1274h-181v47h1039v-334h-45q-25 170 -109 228t-239 59h-267v-590q187 0 227 34t53 82t21 103h45v-518h-45q-8 156 -72 201q-65 45 -229 47v-633h248q111 0 172 9q144 21 195 147q27 66 47 180h53
l-27 -383h-1067z" />
    <glyph glyph-name="Edieresis" unicode="&#xcb;" horiz-adv-x="1251" 
d="M825 1470q-39 0 -67 27t-27 68q0 41 27 69q26 28 66 29q40 0 69 -30q29 -31 29 -69t-29 -66t-68 -28zM425 1470q-40 0 -67 27t-26 68q0 41 26 69t67 29q40 0 69 -30q28 -31 28 -69t-28 -66t-69 -28zM61 0v47h181v1274h-181v47h1039v-334h-45q-25 170 -109 228t-239 59
h-267v-590q187 0 227 34t53 82t21 103h45v-518h-45q-8 156 -72 201q-65 45 -229 47v-633h248q111 0 172 9q144 21 195 147q27 66 47 180h53l-27 -383h-1067z" />
    <glyph glyph-name="Igrave" unicode="&#xcc;" horiz-adv-x="681" 
d="M45 1704q1 35 21 54q20 20 48 20t74 -47l306 -297h-72l-272 165q-39 25 -56 36q-49 34 -49 69zM616 47v-47h-550v47h176v1274h-176v47h550v-47h-176v-1274h176z" />
    <glyph glyph-name="Iacute" unicode="&#xcd;" horiz-adv-x="681" 
d="M570 1778q28 0 48 -20t21 -54q1 -35 -49 -69q-16 -11 -55 -36l-273 -165h-72l306 297q46 47 74 47zM616 47v-47h-550v47h176v1274h-176v47h550v-47h-176v-1274h176z" />
    <glyph glyph-name="Icircumflex" unicode="&#xce;" horiz-adv-x="681" 
d="M287 1774h114l248 -340h-65l-240 215l-240 -215h-69zM616 47v-47h-550v47h176v1274h-176v47h550v-47h-176v-1274h176z" />
    <glyph glyph-name="Idieresis" unicode="&#xcf;" horiz-adv-x="681" 
d="M446 1565q0 41 27 69t67 29q40 0 68 -30q28 -31 29 -69q-1 -38 -29 -66t-68 -28t-67 27t-27 68zM141 1470q-39 0 -67 27t-27 68q0 41 27 69q26 28 66 29q40 0 69 -30q29 -31 29 -69t-29 -66t-68 -28zM616 47v-47h-550v47h176v1274h-176v47h550v-47h-176v-1274h176z" />
    <glyph glyph-name="Eth" unicode="&#xd0;" horiz-adv-x="1366" 
d="M440 1321v-586h287v-59h-287v-629h201q158 1 236 61q77 60 123 164t46 455q0 352 -110 473q-47 51 -133 86t-209 35h-154zM242 47v629h-203v59h203v586h-158v47h549q289 0 464 -182t175 -499t-213 -540q-143 -147 -430 -147h-545v47h158z" />
    <glyph glyph-name="Ntilde" unicode="&#xd1;" horiz-adv-x="1366" 
d="M812 1483q-75 0 -161 47q-94 47 -133 47q-40 0 -70 -28t-38 -66h-56q16 88 72 144t145 56q43 0 135 -47t138 -47t70 26t47 77h59q-20 -88 -76 -148t-132 -61zM238 47v1274h-160v47h399l582 -991h4v944h-160v47h379v-47h-158v-1352h-53l-768 1311h-4v-1233h158v-47h-379
v47h160z" />
    <glyph glyph-name="Ograve" unicode="&#xd2;" horiz-adv-x="1366" 
d="M387 1704q1 35 21 54q20 20 48 20t74 -47l306 -297h-72l-272 165q-39 25 -56 36q-49 34 -49 69zM682 16q202 0 278 164t76 504t-77 504t-277 164t-278 -164q-76 -164 -76 -504t76 -504t278 -164zM682 -31q-170 1 -307 105t-209 267t-72 345t72 344t209 265t307 103
t307 -102q137 -104 209 -266t72 -344t-72 -345t-209 -267t-307 -105z" />
    <glyph glyph-name="Oacute" unicode="&#xd3;" horiz-adv-x="1366" 
d="M912 1778q28 0 48 -20t21 -54q0 -35 -49 -69q-16 -11 -55 -36l-273 -165h-72l306 297q46 47 74 47zM682 16q202 0 278 164t76 504t-77 504t-277 164t-278 -164q-76 -164 -76 -504t76 -504t278 -164zM682 -31q-170 1 -307 105t-209 267t-72 345t72 344t209 265t307 103
t307 -102q137 -104 209 -266t72 -344t-72 -345t-209 -267t-307 -105z" />
    <glyph glyph-name="Ocircumflex" unicode="&#xd4;" horiz-adv-x="1366" 
d="M629 1774h114l248 -340h-65l-240 215l-240 -215h-69zM682 16q202 0 278 164t76 504t-77 504t-277 164t-278 -164q-76 -164 -76 -504t76 -504t278 -164zM682 -31q-170 1 -307 105t-209 267t-72 345t72 344t209 265t307 103t307 -102q137 -104 209 -266t72 -344t-72 -345
t-209 -267t-307 -105z" />
    <glyph glyph-name="Otilde" unicode="&#xd5;" horiz-adv-x="1366" 
d="M812 1483q-75 0 -161 47q-94 47 -133 47q-40 0 -70 -28t-38 -66h-56q16 88 72 144t145 56q43 0 135 -47t138 -47t70 26t47 77h59q-20 -88 -76 -148t-132 -61zM682 16q202 0 278 164t76 504t-77 504t-277 164t-278 -164q-76 -164 -76 -504t76 -504t278 -164zM682 -31
q-170 1 -307 105t-209 267t-72 345t72 344t209 265t307 103t307 -102q137 -104 209 -266t72 -344t-72 -345t-209 -267t-307 -105z" />
    <glyph glyph-name="Odieresis" unicode="&#xd6;" horiz-adv-x="1366" 
d="M883 1470q-39 0 -67 27t-28 68t27 69t67 29q40 0 68 -30q28 -31 29 -69q-1 -38 -29 -66t-67 -28zM482 1470q-40 0 -66 27t-27 68q0 41 27 69q26 28 66 29q40 0 69 -30q29 -31 29 -69t-29 -66t-69 -28zM682 16q202 0 278 164t76 504t-77 504t-277 164t-278 -164
q-76 -164 -76 -504t76 -504t278 -164zM682 -31q-170 1 -307 105t-209 267t-72 345t72 344t209 265t307 103t307 -102q137 -104 209 -266t72 -344t-72 -345t-209 -267t-307 -105z" />
    <glyph glyph-name="multiply" unicode="&#xd7;" horiz-adv-x="1126" 
d="M481 498l-393 409l82 86l393 -411l393 411l82 -86l-393 -409l393 -410l-82 -86l-393 410l-393 -410l-82 86z" />
    <glyph glyph-name="Oslash" unicode="&#xd8;" horiz-adv-x="1366" 
d="M1126 1501h91l-158 -264q100 -101 155 -247q56 -146 56 -316t-72 -333t-209 -267t-311 -104t-313 114l-129 -215h-91l160 266q-98 101 -154 247q-57 146 -57 316t72 332t209 265t309 103t315 -110zM377 254l573 950q-82 148 -276 148t-270 -164t-76 -476t49 -458zM690 16
q194 0 270 164t76 478t-49 458l-573 -950q82 -150 276 -150z" />
    <glyph glyph-name="Ugrave" unicode="&#xd9;" horiz-adv-x="1366" 
d="M387 1704q1 35 21 54q20 20 48 20t74 -47l306 -297h-72l-272 165q-39 25 -56 36q-49 34 -49 69zM1118 444q0 -475 -434 -475q-215 -1 -333 101t-118 274v977h-157v47h516v-47h-160v-1016q0 -59 49 -150q27 -50 88 -84t149 -34q247 0 311 193q34 100 34 278v813h-158v47
h371v-47h-158v-877z" />
    <glyph glyph-name="Uacute" unicode="&#xda;" horiz-adv-x="1366" 
d="M954 1778q28 0 47 -20q20 -20 21 -54q1 -35 -49 -69q-16 -11 -55 -36l-273 -165h-72l306 297q47 47 75 47zM1118 444q0 -475 -434 -475q-215 -1 -333 101t-118 274v977h-157v47h516v-47h-160v-1016q0 -59 49 -150q27 -50 88 -84t149 -34q247 0 311 193q34 100 34 278v813
h-158v47h371v-47h-158v-877z" />
    <glyph glyph-name="Ucircumflex" unicode="&#xdb;" horiz-adv-x="1366" 
d="M629 1774h114l248 -340h-65l-240 215l-240 -215h-69zM1118 444q0 -475 -434 -475q-215 -1 -333 101t-118 274v977h-157v47h516v-47h-160v-1016q0 -59 49 -150q27 -50 88 -84t149 -34q247 0 311 193q34 100 34 278v813h-158v47h371v-47h-158v-877z" />
    <glyph glyph-name="Udieresis" unicode="&#xdc;" horiz-adv-x="1366" 
d="M883 1470q-39 0 -67 27t-28 68t27 69t67 29q40 0 68 -30q28 -31 29 -69q-1 -38 -29 -66t-67 -28zM482 1470q-40 0 -66 27t-27 68q0 41 27 69q26 28 66 29q40 0 69 -30q29 -31 29 -69t-29 -66t-69 -28zM1118 444q0 -475 -434 -475q-215 -1 -333 101t-118 274v977h-157v47
h516v-47h-160v-1016q0 -59 49 -150q27 -50 88 -84t149 -34q247 0 311 193q34 100 34 278v813h-158v47h371v-47h-158v-877z" />
    <glyph glyph-name="Yacute" unicode="&#xdd;" horiz-adv-x="1366" 
d="M974 1778q28 0 48 -20t20 -54q0 -35 -49 -69q-16 -11 -55 -36l-272 -165h-72l305 297q47 47 75 47zM887 1321v47h422v-47h-164l-357 -686v-588h183v-47h-561v47h180v588l-395 686h-152v47h553v-47h-180l346 -614l328 614h-203z" />
    <glyph glyph-name="Thorn" unicode="&#xde;" horiz-adv-x="1138" 
d="M426 1034v-657h70q238 2 316 83t79 265q0 105 -23 169t-81 94t-121 38t-183 8h-57zM66 1321v47h518v-47h-158v-240h184q262 0 380 -104t118 -251t-129 -265q-65 -59 -183 -95t-272 -36h-98v-283h182v-47h-557v47h176v1274h-161z" />
    <glyph glyph-name="germandbls" unicode="&#xdf;" 
d="M322 0h-271v47h119v1024q0 154 95 252t247 98t264 -89t111 -249q0 -96 -67 -189t-206 -136v-4q168 -23 250 -138q82 -116 82 -268t-85 -264t-240 -111q-89 1 -149 53t-60 128q0 119 106 118q34 0 58 -24t24 -59q0 -33 -31 -65t-31 -58t26 -38q24 -13 52 -14
q143 0 144 308q0 280 -87 355q-43 38 -97 42t-76 4q-51 0 -51 29q0 20 47 20q143 0 186 119q27 74 27 222q1 149 -63 207t-144 58t-130 -48t-50 -181v-1149z" />
    <glyph glyph-name="agrave" unicode="&#xe0;" horiz-adv-x="909" 
d="M158 1167q0 35 20 55t48 19q28 0 75 -47l305 -297h-71l-273 166q-39 25 -55 36q-49 33 -49 68zM584 238v190q-360 -6 -361 -213q0 -74 43 -118t124 -44t149 60q45 45 45 125zM309 -27q-240 0 -239 201q4 141 140 219t374 78v195q0 66 -43 96t-103 29q-60 1 -126 -17
q-67 -18 -66 -57q0 -2 30 -28q30 -25 31 -65q-1 -40 -23 -64t-62 -24t-62 28q-22 26 -23 71q0 70 82 133t263 63t228 -71q24 -37 28 -62t5 -67v-488q-1 -64 11 -79t32 -15q45 0 72 92h35q-4 -71 -54 -119t-120 -49q-109 0 -133 125q-100 -125 -277 -125z" />
    <glyph glyph-name="aacute" unicode="&#xe1;" horiz-adv-x="909" 
d="M683 1241q28 0 48 -19t21 -55t-50 -68q-16 -11 -55 -36l-272 -166h-72l305 297q47 47 75 47zM584 238v190q-360 -6 -361 -213q0 -74 43 -118t124 -44t149 60q45 45 45 125zM309 -27q-240 0 -239 201q4 141 140 219t374 78v195q0 66 -43 96t-103 29q-60 1 -126 -17
q-67 -18 -66 -57q0 -2 30 -28q30 -25 31 -65q-1 -40 -23 -64t-62 -24t-62 28q-22 26 -23 71q0 70 82 133t263 63t228 -71q24 -37 28 -62t5 -67v-488q-1 -64 11 -79t32 -15q45 0 72 92h35q-4 -71 -54 -119t-120 -49q-109 0 -133 125q-100 -125 -277 -125z" />
    <glyph glyph-name="acircumflex" unicode="&#xe2;" horiz-adv-x="909" 
d="M399 1237h115l248 -340h-66l-239 215l-240 -215h-70zM584 238v190q-360 -6 -361 -213q0 -74 43 -118t124 -44t149 60q45 45 45 125zM309 -27q-240 0 -239 201q4 141 140 219t374 78v195q0 66 -43 96t-103 29q-60 1 -126 -17q-67 -18 -66 -57q0 -2 30 -28q30 -25 31 -65
q-1 -40 -23 -64t-62 -24t-62 28q-22 26 -23 71q0 70 82 133t263 63t228 -71q24 -37 28 -62t5 -67v-488q-1 -64 11 -79t32 -15q45 0 72 92h35q-4 -71 -54 -119t-120 -49q-109 0 -133 125q-100 -125 -277 -125z" />
    <glyph glyph-name="atilde" unicode="&#xe3;" horiz-adv-x="909" 
d="M289 1040q-39 0 -70 -28t-39 -66h-55q17 88 73 144t144 57q43 0 135 -47t137 -47t70 25q24 26 47 77h60q-21 -88 -77 -148q-109 -116 -292 -14q-94 47 -133 47zM584 238v190q-360 -6 -361 -213q0 -74 43 -118t124 -44t149 60q45 45 45 125zM309 -27q-240 0 -239 201
q4 141 140 219t374 78v195q0 66 -43 96t-103 29q-60 1 -126 -17q-67 -18 -66 -57q0 -2 30 -28q30 -25 31 -65q-1 -40 -23 -64t-62 -24t-62 28q-22 26 -23 71q0 70 82 133t263 63t228 -71q24 -37 28 -62t5 -67v-488q-1 -64 11 -79t32 -15q45 0 72 92h35q-4 -71 -54 -119
t-120 -49q-109 0 -133 125q-100 -125 -277 -125z" />
    <glyph glyph-name="adieresis" unicode="&#xe4;" horiz-adv-x="909" 
d="M653 934q-39 0 -67 27t-27 67q0 40 27 70q26 28 66 28t69 -30t29 -68t-29 -66t-68 -28zM253 934q-40 0 -67 27q-26 27 -26 67t26 70q27 28 67 28t69 -30q28 -30 28 -68t-28 -66t-69 -28zM584 238v190q-360 -6 -361 -213q0 -74 43 -118t124 -44t149 60q45 45 45 125z
M309 -27q-240 0 -239 201q4 141 140 219t374 78v195q0 66 -43 96t-103 29q-60 1 -126 -17q-67 -18 -66 -57q0 -2 30 -28q30 -25 31 -65q-1 -40 -23 -64t-62 -24t-62 28q-22 26 -23 71q0 70 82 133t263 63t228 -71q24 -37 28 -62t5 -67v-488q-1 -64 11 -79t32 -15q45 0 72 92
h35q-4 -71 -54 -119t-120 -49q-109 0 -133 125q-100 -125 -277 -125z" />
    <glyph glyph-name="aring" unicode="&#xe5;" horiz-adv-x="909" 
d="M647 1100q0 -82 -58 -140t-141 -59q-83 0 -141 57q-57 58 -57 142t57 141t141 57t141 -58q58 -58 58 -140zM449 1237q-57 0 -97 -40t-41 -98q0 -57 39 -97q40 -40 98 -40t98 40t40 98t-40 97q-40 40 -97 40zM584 238v190q-360 -6 -361 -213q0 -74 43 -118t124 -44t149 60
q45 45 45 125zM309 -27q-240 0 -239 201q4 141 140 219t374 78v195q0 66 -43 96t-103 29q-60 1 -126 -17q-67 -18 -66 -57q0 -2 30 -28q30 -25 31 -65q-1 -40 -23 -64t-62 -24t-62 28q-22 26 -23 71q0 70 82 133t263 63t228 -71q24 -37 28 -62t5 -67v-488q-1 -64 11 -79
t32 -15q45 0 72 92h35q-4 -71 -54 -119t-120 -49q-109 0 -133 125q-100 -125 -277 -125z" />
    <glyph glyph-name="ae" unicode="&#xe6;" horiz-adv-x="1366" 
d="M940 -27q-90 -1 -182 51t-129 121q-59 -80 -151 -126t-177 -46q-240 0 -240 201q5 141 141 219t373 78v195q0 66 -43 96t-102 29q-59 1 -126 -17t-66 -57q0 -2 30 -28q30 -25 31 -65q0 -40 -23 -64q-22 -24 -62 -24t-62 28q-22 26 -23 71q0 70 82 133t250 65t233 -92
q66 51 118 71t122 19q160 0 263 -100t106 -264h-572v-84q0 -228 60 -297q60 -70 182 -72q90 0 176 71t106 169h45q-32 -139 -126 -210t-234 -71zM1116 526v70q0 195 -188 195q-121 0 -172 -129q-17 -52 -21 -136h381zM575 238v190q-360 -6 -360 -213q0 -74 43 -118t124 -44
t148 60q45 45 45 125z" />
    <glyph glyph-name="ccedilla" unicode="&#xe7;" horiz-adv-x="909" 
d="M508 -123q39 0 90 -36q51 -37 51 -117t-74 -120t-173 -40t-169 30l29 62q88 -25 128 -25q40 1 78 21t38 62t-29 62q-40 28 -121 11l-37 10l82 185q-91 12 -159 58q-115 78 -157 226q-17 59 -17 138t31 161q55 142 185 212q98 54 205 54t208 -55t102 -164q0 -44 -26 -76
q-25 -32 -67 -32t-69 26t-27 66q0 38 16 62t33 35q16 11 17 20q0 37 -62 57t-112 21q-140 1 -194 -99t-54 -279t46 -284t198 -113q90 -4 168 62t114 176h43q-41 -127 -117 -201t-225 -80q-8 0 -12 2l-49 -110q49 12 88 12z" />
    <glyph glyph-name="egrave" unicode="&#xe8;" horiz-adv-x="909" 
d="M158 1167q0 35 20 55t48 19q28 0 75 -47l305 -297h-71l-273 166q-39 25 -55 36q-49 33 -49 68zM653 526v70q0 195 -188 195q-106 0 -169 -103q-29 -47 -34 -162h391zM462 831q169 0 272 -100t106 -264h-580v-84q0 -166 41 -258q50 -109 209 -109q90 0 176 70t107 168h45
q-63 -281 -372 -281q-151 0 -275 115q-123 115 -123 292t112 314q113 137 282 137z" />
    <glyph glyph-name="eacute" unicode="&#xe9;" horiz-adv-x="909" 
d="M683 1241q28 0 48 -19t21 -55t-50 -68q-16 -11 -55 -36l-272 -166h-72l305 297q47 47 75 47zM653 526v70q0 195 -188 195q-106 0 -169 -103q-29 -47 -34 -162h391zM462 831q169 0 272 -100t106 -264h-580v-84q0 -166 41 -258q50 -109 209 -109q90 0 176 70t107 168h45
q-63 -281 -372 -281q-151 0 -275 115q-123 115 -123 292t112 314q113 137 282 137z" />
    <glyph glyph-name="ecircumflex" unicode="&#xea;" horiz-adv-x="909" 
d="M430 1237h115l248 -340h-66l-240 215l-239 -215h-70zM653 526v70q0 195 -188 195q-106 0 -169 -103q-29 -47 -34 -162h391zM462 831q169 0 272 -100t106 -264h-580v-84q0 -166 41 -258q50 -109 209 -109q90 0 176 70t107 168h45q-63 -281 -372 -281q-151 0 -275 115
q-123 115 -123 292t112 314q113 137 282 137z" />
    <glyph glyph-name="edieresis" unicode="&#xeb;" horiz-adv-x="909" 
d="M653 934q-39 0 -67 27t-27 67q0 40 27 70q26 28 66 28t69 -30t29 -68t-29 -66t-68 -28zM253 934q-40 0 -67 27q-26 27 -26 67t26 70q27 28 67 28t69 -30q28 -30 28 -68t-28 -66t-69 -28zM653 526v70q0 195 -188 195q-106 0 -169 -103q-29 -47 -34 -162h391zM462 831
q169 0 272 -100t106 -264h-580v-84q0 -166 41 -258q50 -109 209 -109q90 0 176 70t107 168h45q-63 -281 -372 -281q-151 0 -275 115q-123 115 -123 292t112 314q113 137 282 137z" />
    <glyph glyph-name="igrave" unicode="&#xec;" horiz-adv-x="569" 
d="M-12 1167q0 35 20 55t48 19q28 0 75 -47l305 -297h-71l-273 166q-39 25 -55 36q-49 33 -49 68zM483 0h-417v47h137v717h-137v47h67q147 0 229 20v-784h121v-47z" />
    <glyph glyph-name="iacute" unicode="&#xed;" horiz-adv-x="569" 
d="M513 1241q28 0 48 -19t21 -55t-50 -68q-16 -11 -55 -36l-272 -166h-72l305 297q47 47 75 47zM483 0h-417v47h137v717h-137v47h67q147 0 229 20v-784h121v-47z" />
    <glyph glyph-name="icircumflex" unicode="&#xee;" horiz-adv-x="569" 
d="M229 1237h115l248 -340h-66l-239 215l-240 -215h-70zM483 0h-417v47h137v717h-137v47h67q147 0 229 20v-784h121v-47z" />
    <glyph glyph-name="idieresis" unicode="&#xef;" horiz-adv-x="569" 
d="M580 1028q0 -38 -29 -66t-69 -28t-66 27t-27 67q0 40 27 70q26 28 66 28t69 -30t29 -68zM84 934q-39 0 -67 27q-27 27 -27 67t26 70q27 28 67 28t69 -30q28 -30 28 -68t-28 -66t-68 -28zM483 0h-417v47h137v717h-137v47h67q147 0 229 20v-784h121v-47z" />
    <glyph glyph-name="eth" unicode="&#xf0;" horiz-adv-x="909" 
d="M850 512q0 -250 -98 -394t-297 -145q-164 0 -280 123t-116 306q0 182 116 306t280 123q104 0 186 -59q-29 193 -115 346l-235 -157l-37 47l240 159q-88 137 -228 213l72 50q141 -86 246 -203l254 172l36 -47l-251 -170q227 -272 227 -670zM455 791q-59 0 -101 -26
q-42 -25 -63 -59t-33 -106t-12 -170q0 -256 37 -318q58 -98 172 -98q59 0 101 26t62 60q46 77 46 303t-46 303q-20 34 -62 60t-101 25z" />
    <glyph glyph-name="ntilde" unicode="&#xf1;" 
d="M346 1040q-39 0 -70 -28t-38 -66h-56q16 88 72 144t145 57q43 0 135 -47t138 -47q45 -1 69 25t47 77h60q-20 -88 -76 -148q-108 -115 -293 -14q-94 47 -133 47zM102 811q141 0 230 20v-217h4q96 217 287 217q162 0 217 -94q27 -45 26 -110v-580h111v-47h-377v47h107v553
q0 104 -31 138t-98 34q-100 0 -174 -110q-73 -111 -72 -234v-381h110v-47h-383v47h113v717h-113v47h43z" />
    <glyph glyph-name="ograve" unicode="&#xf2;" horiz-adv-x="909" 
d="M158 1167q0 35 20 55t48 19q28 0 75 -47l305 -297h-71l-273 166q-39 25 -55 36q-49 33 -49 68zM455 791q-59 0 -101 -26q-42 -25 -63 -59t-33 -106t-12 -170q0 -256 37 -318q58 -98 172 -98q59 0 101 26t62 60q46 77 46 303t-46 303q-20 34 -62 60t-101 25zM455 831
q163 -1 279 -123t116 -306t-116 -306q-116 -123 -280 -123t-279 123q-116 123 -116 306t116 306t280 123z" />
    <glyph glyph-name="oacute" unicode="&#xf3;" horiz-adv-x="909" 
d="M683 1241q28 0 48 -19t21 -55t-50 -68q-16 -11 -55 -36l-272 -166h-72l305 297q47 47 75 47zM455 791q-59 0 -101 -26q-42 -25 -63 -59t-33 -106t-12 -170q0 -256 37 -318q58 -98 172 -98q59 0 101 26t62 60q46 77 46 303t-46 303q-20 34 -62 60t-101 25zM455 831
q163 -1 279 -123t116 -306t-116 -306q-116 -123 -280 -123t-279 123q-116 123 -116 306t116 306t280 123z" />
    <glyph glyph-name="ocircumflex" unicode="&#xf4;" horiz-adv-x="909" 
d="M399 1237h115l248 -340h-66l-239 215l-240 -215h-70zM455 791q-59 0 -101 -26q-42 -25 -63 -59t-33 -106t-12 -170q0 -256 37 -318q58 -98 172 -98q59 0 101 26t62 60q46 77 46 303t-46 303q-20 34 -62 60t-101 25zM455 831q163 -1 279 -123t116 -306t-116 -306
q-116 -123 -280 -123t-279 123q-116 123 -116 306t116 306t280 123z" />
    <glyph glyph-name="otilde" unicode="&#xf5;" horiz-adv-x="909" 
d="M289 1040q-39 0 -70 -28t-39 -66h-55q17 88 73 144t144 57q43 0 135 -47t137 -47t70 25q24 26 47 77h60q-21 -88 -77 -148q-109 -116 -292 -14q-94 47 -133 47zM455 791q-59 0 -101 -26q-42 -25 -63 -59t-33 -106t-12 -170q0 -256 37 -318q58 -98 172 -98q59 0 101 26
t62 60q46 77 46 303t-46 303q-20 34 -62 60t-101 25zM455 831q163 -1 279 -123t116 -306t-116 -306q-116 -123 -280 -123t-279 123q-116 123 -116 306t116 306t280 123z" />
    <glyph glyph-name="odieresis" unicode="&#xf6;" horiz-adv-x="909" 
d="M653 934q-39 0 -67 27t-27 67q0 40 27 70q26 28 66 28t69 -30t29 -68t-29 -66t-68 -28zM253 934q-40 0 -67 27q-26 27 -26 67t26 70q27 28 67 28t69 -30q28 -30 28 -68t-28 -66t-69 -28zM455 791q-59 0 -101 -26q-42 -25 -63 -59t-33 -106t-12 -170q0 -256 37 -318
q58 -98 172 -98q59 0 101 26t62 60q46 77 46 303t-46 303q-20 34 -62 60t-101 25zM455 831q163 -1 279 -123t116 -306t-116 -306q-116 -123 -280 -123t-279 123q-116 123 -116 306t116 306t280 123z" />
    <glyph glyph-name="divide" unicode="&#xf7;" horiz-adv-x="1126" 
d="M1038 438h-950v119h950v-119zM442 98q0 53 35 89t86 36t87 -37t36 -88t-36 -88t-87 -37t-86 36t-35 89zM442 897q0 53 35 89t86 36t87 -37t36 -89t-36 -88t-87 -36t-86 36t-35 89z" />
    <glyph glyph-name="oslash" unicode="&#xf8;" horiz-adv-x="909" 
d="M59 403q0 181 116 305t280 123q82 0 161 -34l115 219h78l-131 -256q172 -129 172 -357q0 -184 -116 -307t-279 -123q-84 0 -162 39l-115 -221h-78l133 258q-80 55 -127 149t-47 205zM664 386q0 208 -31 284l-311 -604q52 -52 122 -52q123 -1 171 81q49 83 49 291z
M246 420q0 -209 33 -285l309 604q-48 51 -120 51q-126 1 -174 -80t-48 -290z" />
    <glyph glyph-name="ugrave" unicode="&#xf9;" 
d="M215 1167q1 35 21 55t48 19q28 0 74 -47l306 -297h-72l-273 166q-39 25 -55 36q-49 33 -49 68zM963 47v-47h-43q-94 0 -224 -14v166h-4q-41 -84 -119 -132t-178 -49q-242 0 -241 199v594h-111v47h41q147 0 229 20v-643q0 -152 125 -151q106 0 177 78t71 190v459h-117v47
h47q147 0 230 20v-784h117z" />
    <glyph glyph-name="uacute" unicode="&#xfa;" 
d="M740 1241q28 0 48 -19t21 -55t-49 -68q-16 -11 -55 -36l-273 -166h-72l306 297q46 47 74 47zM963 47v-47h-43q-94 0 -224 -14v166h-4q-41 -84 -119 -132t-178 -49q-242 0 -241 199v594h-111v47h41q147 0 229 20v-643q0 -152 125 -151q106 0 177 78t71 190v459h-117v47h47
q147 0 230 20v-784h117z" />
    <glyph glyph-name="ucircumflex" unicode="&#xfb;" 
d="M457 1237h114l248 -340h-65l-240 215l-240 -215h-69zM963 47v-47h-43q-94 0 -224 -14v166h-4q-41 -84 -119 -132t-178 -49q-242 0 -241 199v594h-111v47h41q147 0 229 20v-643q0 -152 125 -151q106 0 177 78t71 190v459h-117v47h47q147 0 230 20v-784h117z" />
    <glyph glyph-name="udieresis" unicode="&#xfc;" 
d="M711 934q-39 0 -67 27t-28 67t27 70q27 28 67 28t68 -30t29 -68q-1 -38 -29 -66t-67 -28zM408 1028q0 -38 -29 -66t-69 -28t-66 27t-27 67q0 40 27 70q26 28 66 28t69 -30t29 -68zM963 47v-47h-43q-94 0 -224 -14v166h-4q-41 -84 -119 -132t-178 -49q-242 0 -241 199v594
h-111v47h41q147 0 229 20v-643q0 -152 125 -151q106 0 177 78t71 190v459h-117v47h47q147 0 230 20v-784h117z" />
    <glyph glyph-name="yacute" unicode="&#xfd;" horiz-adv-x="909" 
d="M744 1241q28 0 48 -19t21 -55q0 -36 -49 -68q-16 -11 -55 -36l-273 -166h-71l305 297q46 47 74 47zM868 764h-102l-328 -901q-63 -172 -117 -250t-145 -78q-34 0 -66 28q-32 27 -32 65t24 62q25 24 60 24q60 -1 88 -57q10 -19 24 -19q39 0 160 362l-313 764h-96v47h393
v-47h-131l227 -551l195 551h-131v47h290v-47z" />
    <glyph glyph-name="thorn" unicode="&#xfe;" 
d="M326 384q0 -116 8 -160t33 -92t82 -83t106 -35t78 8t65 40q72 64 72 306t-48 329t-163 87q-39 0 -87 -25q-116 -58 -138 -205q-8 -54 -8 -170zM166 -416v1780h-117v47h47q135 0 230 19v-742h4q31 57 96 100q66 43 135 43q152 -1 274 -113t121 -333q0 -164 -104 -288
t-274 -124t-248 138h-4v-527h139v-47h-420v47h121z" />
    <glyph glyph-name="ydieresis" unicode="&#xff;" horiz-adv-x="909" 
d="M694 934q-38 0 -66 27t-28 67t27 70q27 28 67 28t68 -30q29 -30 29 -68t-29 -66t-68 -28zM391 1028q-1 -38 -29 -66t-68 -28t-67 27t-27 67t27 70q27 28 67 28t68 -30t29 -68zM868 764h-102l-328 -901q-63 -172 -117 -250t-145 -78q-34 0 -66 28q-32 27 -32 65t24 62
q25 24 60 24q60 -1 88 -57q10 -19 24 -19q39 0 160 362l-313 764h-96v47h393v-47h-131l227 -551l195 551h-131v47h290v-47z" />
    <glyph glyph-name="dotlessi" unicode="&#x131;" horiz-adv-x="569" 
d="M483 0h-417v47h137v717h-137v47h67q147 0 229 20v-784h121v-47z" />
    <glyph glyph-name="Lslash" unicode="&#x141;" horiz-adv-x="1138" 
d="M629 1321h-189v-555l314 295v-105l-314 -294v-615h367q113 1 181 105t91 231h39l-22 -383h-1022v47h168v430l-197 -184v104l197 185v739h-168v47h555v-47z" />
    <glyph glyph-name="lslash" unicode="&#x142;" horiz-adv-x="569" 
d="M516 0h-475v47h158v506l-189 -199v97l189 198v715h-158v47h88q135 0 229 19v-615l185 195v-97l-185 -194v-672h158v-47z" />
    <glyph glyph-name="OE" unicode="&#x152;" horiz-adv-x="1933" 
d="M928 467v430q0 205 -49 306q-57 118 -236 118q-69 0 -137 -30t-103 -87q-75 -106 -75 -431t23 -449q23 -123 59 -171q78 -106 240 -106q162 1 220 105t58 315zM1786 1034h-49q-28 186 -126 241q-49 28 -99 37t-126 9h-264v-590q128 0 177 12t66 36q40 57 58 171h45v-518
h-45q-10 156 -73 201t-228 47v-633h246q113 0 174 9q141 21 193 147q27 66 47 180h55l-29 -383h-1181q-227 0 -380 191t-153 479q0 147 37 269q65 214 218 323q153 108 298 106h1139v-334z" />
    <glyph glyph-name="oe" unicode="&#x153;" horiz-adv-x="1478" 
d="M1217 526v70q0 195 -189 195q-106 0 -169 -103q-29 -47 -34 -162h392zM459 791q-59 0 -101 -26q-42 -25 -63 -59t-33 -106t-12 -170q0 -256 37 -318q58 -98 172 -98q59 0 101 26t63 59q45 76 45 302t-45 305q-21 34 -63 60t-101 25zM1040 -27q-78 0 -158 35t-132 98
q-106 -133 -280 -133t-291 123q-116 123 -116 306q0 182 116 306t280 122t291 -136q147 135 284 137q160 0 263 -100t106 -264h-580v-84q0 -166 41 -258q50 -111 209 -111q91 0 177 71t106 169h45q-31 -139 -126 -210t-235 -71z" />
    <glyph glyph-name="Scaron" unicode="&#x160;" 
d="M567 1434h-114l-248 340h65l240 -215l240 215h69zM80 -6v352h39q43 -145 147 -237q104 -93 244 -93t245 83q103 83 103 214q0 95 -36 145t-150 95q-25 10 -209 73t-215 81q-166 102 -166 313q0 123 84 233q113 145 317 146q63 0 147 -31t122 -59l77 59h29v-319h-41
q-35 135 -126 219t-212 84t-211 -70t-90 -171t80 -155t194 -82q114 -30 228 -68t194 -133t80 -249q0 -209 -120 -332t-322 -123q-200 0 -315 115l-88 -90h-29z" />
    <glyph glyph-name="scaron" unicode="&#x161;" horiz-adv-x="796" 
d="M455 897h-115l-248 340h66l239 -215l240 215h70zM627 811v-229h-45q-51 201 -224 209q-57 3 -99 -17q-41 -20 -67 -61t-26 -74t16 -51q40 -45 314 -101q116 -25 164 -79t48 -169q0 -114 -84 -190q-85 -76 -220 -76t-226 101l-45 -74h-45v270h47q31 -116 106 -186t167 -70
t154 50t63 126q0 56 -68 90t-212 70t-185 64q-72 51 -72 150t53 173q69 95 233 95q88 0 181 -76l37 55h35z" />
    <glyph glyph-name="Ydieresis" unicode="&#x178;" horiz-adv-x="1366" 
d="M912 1470q-40 0 -66 27t-27 68q0 41 27 69q26 28 66 29q40 0 69 -30q29 -31 29 -69t-29 -66t-69 -28zM514 1470q-39 0 -67 27t-27 68q0 41 26 69t67 29q40 0 69 -30q28 -31 28 -69t-28 -66t-68 -28zM887 1321v47h422v-47h-164l-357 -686v-588h183v-47h-561v47h180v588
l-395 686h-152v47h553v-47h-180l346 -614l328 614h-203z" />
    <glyph glyph-name="Zcaron" unicode="&#x17d;" horiz-adv-x="1138" 
d="M625 1434h-115l-248 340h66l239 -215l240 215h70zM635 47q176 0 253 71t109 267h56l-23 -385h-997v84l790 1237h-379q-143 0 -195 -53t-108 -232h-47l21 332h934v-65l-793 -1256h379z" />
    <glyph glyph-name="zcaron" unicode="&#x17e;" horiz-adv-x="796" 
d="M455 897h-115l-248 340h66l239 -215l240 215h70zM102 545v266h615v-51l-475 -713h258q72 1 110 63t64 187h39v-297h-662v45l479 719h-182q-90 0 -134 -39t-64 -180h-48z" />
    <glyph glyph-name="florin" unicode="&#x192;" 
d="M426 770h-221v49h223q16 445 226 575q50 30 100 29q190 0 190 -141q0 -18 -22 -47t-55 -29q-32 0 -50 20t-20 52l6 92q-25 10 -47 10q-58 0 -98 -43t-57 -135t-17 -172v-211h235v-49h-235q0 -514 -26 -740t-104 -346q-78 -122 -247 -122q-57 0 -102 35q-44 35 -44 82
t23 75q24 28 58 27q34 0 54 -24t21 -62l-8 -64q0 -27 45 -26q150 0 158 340q2 83 5 285t6 353t3 187z" />
    <glyph glyph-name="circumflex" unicode="&#x2c6;" horiz-adv-x="569" 
d="M229 1237h115l248 -340h-66l-239 215l-240 -215h-70z" />
    <glyph glyph-name="caron" unicode="&#x2c7;" horiz-adv-x="569" 
d="M340 897h-115l-248 340h66l240 -215l239 215h70z" />
    <glyph glyph-name="uni02C9" unicode="&#x2c9;" horiz-adv-x="569" 
d="M12 979v102h545v-102h-545z" />
    <glyph glyph-name="breve" unicode="&#x2d8;" horiz-adv-x="569" 
d="M284 1010q92 0 156 54q63 54 74 150h55q-2 -150 -79 -234q-78 -84 -206 -85q-128 1 -205 85t-79 234h55q9 -96 73 -150t156 -54z" />
    <glyph glyph-name="dotaccent" unicode="&#x2d9;" horiz-adv-x="569" 
d="M285 934q-39 0 -67 27t-28 67t27 70q27 28 67 28t68 -30t29 -68q-1 -38 -29 -66t-67 -28z" />
    <glyph glyph-name="ring" unicode="&#x2da;" horiz-adv-x="569" 
d="M477 1100q0 -82 -58 -140t-141 -59q-83 0 -141 57q-57 58 -57 142t58 141t140 57t141 -58q58 -58 58 -140zM279 1237q-57 0 -97 -40t-41 -98q0 -57 40 -97q39 -40 97 -40t98 40t40 98t-40 97q-40 40 -97 40z" />
    <glyph glyph-name="ogonek" unicode="&#x2db;" horiz-adv-x="569" 
d="M346 -229q55 0 78 100h63q-18 -101 -67 -153t-117 -52t-118 41q-49 41 -49 121t106 172h84q-62 -66 -62 -148t82 -81z" />
    <glyph glyph-name="tilde" unicode="&#x2dc;" horiz-adv-x="569" 
d="M119 1040q-39 0 -70 -28t-39 -66h-55q17 88 73 144t144 57q43 0 135 -47t137 -47t70 25q24 26 47 77h60q-21 -88 -77 -148q-109 -116 -292 -14q-94 47 -133 47z" />
    <glyph glyph-name="hungarumlaut" unicode="&#x2dd;" horiz-adv-x="569" 
d="M820 1241q28 0 48 -19t20 -45q0 -27 -16 -47t-32 -31t-56 -36l-272 -166h-72l305 297q47 47 75 47zM472 1241q28 0 48 -19t20 -45q0 -27 -16 -47t-32 -31t-56 -36l-272 -166h-72l305 297q47 47 75 47z" />
    <glyph glyph-name="uni03A9" unicode="&#x3a9;" horiz-adv-x="1339" 
d="M668 1282q-328 0 -328 -555q0 -113 37 -245t82 -231t102 -214l-16 -37h-441l-43 285l52 2q29 -88 57 -115t86 -27h186q-59 53 -102 99t-98 122q-115 161 -115 375q0 271 156 437q155 166 391 166t386 -160q150 -158 150 -430q0 -196 -112 -359q-82 -119 -211 -250h198
q57 0 83 25t55 117l55 -2l-47 -285h-445l-12 37q77 154 106 227q29 72 60 156q59 160 59 315q-2 283 -96 415t-235 132z" />
    <glyph glyph-name="uni03BC" unicode="&#x3bc;" 
d="M963 49v-49h-43q-94 0 -224 -14v166h-4q-41 -84 -119 -132t-171 -49q-93 0 -138 37q-31 -86 28 -222q36 -83 36 -132t-27 -84t-80 -35q-98 0 -98 162q0 57 15 205t16 243v619h-111v47h41q147 0 229 20v-643q0 -152 125 -151q106 0 177 78t71 190v459h-117v47h47
q147 0 230 20v-782h117z" />
    <glyph glyph-name="pi" unicode="&#x3c0;" horiz-adv-x="1058" 
d="M375 674q0 -201 -33 -394t-90 -270q-57 -27 -119 -35l-12 37q94 123 135 319t41 378q-82 -1 -129 -19t-111 -63l-26 47q70 88 112 119q86 59 211 57q418 -6 478 -6t84 12q22 12 42 51l50 -16q-18 -111 -66 -184q-39 -10 -125 -11q-8 -94 -8 -426q0 -172 78 -172
q43 0 90 52l24 -41q-35 -61 -89 -97t-111 -37q-174 0 -174 252q0 172 20 475q-167 0 -272 3v-31z" />
    <glyph glyph-name="uni2010" unicode="&#x2010;" horiz-adv-x="681" 
d="M592 375h-502v137h502v-137z" />
    <glyph glyph-name="endash" unicode="&#x2013;" 
d="M1024 391h-1024v105h1024v-105z" />
    <glyph glyph-name="emdash" unicode="&#x2014;" horiz-adv-x="2048" 
d="M2048 391h-2048v105h2048v-105z" />
    <glyph glyph-name="quoteleft" unicode="&#x2018;" horiz-adv-x="454" 
d="M152 1066q0 -58 24 -58q5 0 21 20q31 39 86 39q111 0 110 -115q0 -51 -41 -87q-40 -36 -106 -36q-66 -1 -113 51t-47 148t70 184t168 154l16 -35q-102 -84 -145 -145q-43 -62 -43 -120z" />
    <glyph glyph-name="quoteright" unicode="&#x2019;" horiz-adv-x="454" 
d="M303 1129q0 58 -24 59q-5 0 -15 -14q-33 -44 -92 -46q-111 0 -111 115q0 51 41 87t107 36t113 -51t47 -147t-70 -185q-70 -88 -168 -154l-16 35q102 84 145 146t43 119z" />
    <glyph glyph-name="quotesinglbase" unicode="&#x201a;" horiz-adv-x="454" 
d="M303 -30q0 58 -24 59q-5 1 -14 -11t-15 -18q-27 -31 -78 -31q-111 0 -111 115q0 51 41 87t107 36t113 -51q47 -52 47 -148t-70 -184t-168 -154l-16 35q102 84 145 145q43 62 43 120z" />
    <glyph glyph-name="quotedblleft" unicode="&#x201c;" horiz-adv-x="909" 
d="M152 1066q0 -58 24 -58q5 0 21 20q31 39 86 39q111 0 110 -115q0 -51 -41 -87q-40 -36 -106 -36q-66 -1 -113 51t-47 148t70 184t168 154l16 -35q-102 -84 -145 -145q-43 -62 -43 -120zM606 1066q0 -58 25 -58q7 0 21 20q28 39 85 39q111 0 111 -115q0 -51 -41 -87
t-107 -36q-66 -1 -112 51q-47 52 -47 148t69 184q70 88 168 154l17 -35q-101 -84 -145 -145q-44 -62 -44 -120z" />
    <glyph glyph-name="quotedblright" unicode="&#x201d;" horiz-adv-x="909" 
d="M758 1129q0 58 -25 59q-4 0 -14 -14q-32 -44 -92 -46q-111 0 -111 115q0 51 41 87t107 36t112 -51q47 -51 47 -147q1 -96 -69 -185q-70 -88 -168 -154l-17 35q101 84 145 146t44 119zM303 1129q0 58 -24 59q-5 0 -15 -14q-33 -44 -92 -46q-111 0 -111 115q0 51 41 87
t107 36t113 -51t47 -147t-70 -185q-70 -88 -168 -154l-16 35q102 84 145 146t43 119z" />
    <glyph glyph-name="quotedblbase" unicode="&#x201e;" horiz-adv-x="909" 
d="M758 -30q0 58 -25 59q-4 1 -13 -11t-15 -18q-27 -31 -78 -31q-111 0 -111 115q0 51 41 87t107 36t112 -51q47 -52 47 -148q1 -96 -69 -184t-168 -154l-17 35q102 84 146 145q43 62 43 120zM303 -30q0 58 -24 59q-5 1 -14 -11t-15 -18q-27 -31 -78 -31q-111 0 -111 115
q0 51 41 87t107 36t113 -51q47 -52 47 -148t-70 -184t-168 -154l-16 35q102 84 145 145q43 62 43 120z" />
    <glyph glyph-name="dagger" unicode="&#x2020;" 
d="M532 -326h-40q0 199 -4 304q-3 106 -23 260t-62 262q86 111 86 374q-90 0 -170 -34t-105 -35q-26 0 -42 5t-36 28q-19 24 -19 58t23 62t62 27q38 0 118 -35t169 -35q0 177 -55 281q-18 36 -18 76t28 68q29 28 68 28t68 -28q55 -53 5 -155t-50 -270q90 0 170 35t105 35
q26 0 42 -5t36 -28q20 -24 19 -58q0 -34 -23 -62q-23 -27 -62 -27q-38 0 -118 35t-169 34q0 -264 86 -374q-41 -108 -61 -262t-24 -260t-4 -304z" />
    <glyph glyph-name="daggerdbl" unicode="&#x2021;" 
d="M489 874q-90 0 -170 -34t-105 -35q-26 0 -42 5t-36 28q-19 24 -19 58t23 62t62 27q38 0 118 -35t169 -35q0 177 -55 281q-18 36 -18 76t28 68q29 28 68 28t68 -28q55 -53 5 -155t-50 -270q90 0 170 35t105 35q26 0 42 -5t36 -28q20 -24 19 -58q0 -34 -23 -62
q-23 -27 -62 -27q-38 0 -118 35t-169 34q0 -266 86 -360q-86 -94 -86 -360q90 0 170 34t105 35q26 0 42 -5t36 -28q20 -24 19 -58q0 -34 -23 -61t-62 -28q-38 0 -118 35t-169 35q0 -174 55 -281q18 -36 18 -76t-28 -67t-68 -27q-39 0 -68 27q-55 52 -5 153q50 102 50 271
q-90 0 -170 -35t-105 -35q-26 0 -42 5t-36 28q-19 24 -19 58t23 62q23 27 62 27q38 0 118 -35t169 -34q0 266 -86 360q86 94 86 360z" />
    <glyph glyph-name="bullet" unicode="&#x2022;" 
d="M178 670q0 137 97 235q97 99 237 99t236 -98q98 -98 98 -236t-97 -236t-237 -98t-237 98q-97 99 -97 236z" />
    <glyph glyph-name="ellipsis" unicode="&#x2026;" horiz-adv-x="2048" 
d="M1702 -23q-51 0 -84 33t-33 81t36 82t82 34t85 -34t39 -82t-37 -81t-88 -33zM1020 -23q-51 0 -84 33t-33 81t36 82t82 34t85 -34t39 -82t-37 -81t-88 -33zM338 -23q-51 0 -84 33t-33 81t36 82t82 34t85 -34t39 -82t-37 -81t-88 -33z" />
    <glyph glyph-name="perthousand" unicode="&#x2030;" horiz-adv-x="2048" 
d="M1864 645q-72 -1 -147 -109t-115 -219t-41 -151q0 -133 110 -133q104 0 209 153q104 154 104 306t-120 153zM1839 715q97 1 147 -63t50 -164t-50 -218q-50 -117 -146 -207t-207 -90q-110 -1 -172 63t-62 179q0 164 142 332t298 168zM1139 645q-72 -1 -147 -109
q-76 -108 -116 -219t-40 -151q0 -133 110 -133q104 0 209 153q105 154 105 306t-121 153zM1114 715q96 1 146 -63t51 -164q0 -100 -50 -218q-51 -117 -147 -207t-206 -90q-110 -1 -172 63t-62 179q0 164 142 332t298 168zM174 780q0 -111 115 -110q104 0 206 154
q101 155 101 300q0 37 -4 60q-88 35 -123 92q-27 0 -55 -18t-43 -36q-14 -17 -60 -78q-45 -60 -91 -176t-46 -188zM748 1153q-62 0 -103 8q4 -29 2 -55q-12 -180 -128 -338t-257 -158t-195 76t-55 164q0 158 142 328t292 170q60 0 114 -33t73 -88q27 -20 84 -21
q200 0 317 170h90l-802 -1431h-105l711 1255l-4 4q-114 -51 -176 -51z" />
    <glyph glyph-name="guilsinglleft" unicode="&#x2039;" horiz-adv-x="681" 
d="M522 148q0 -16 -12 -17q-14 0 -59 43t-115 110t-98 90q-28 22 -40 32q-10 10 -16 13t-13 10t-7 13q0 9 42 41t247 228q45 43 58 43t13 -18t-75 -126q-75 -109 -134 -168q59 -59 134 -168q75 -110 75 -126z" />
    <glyph glyph-name="guilsinglright" unicode="&#x203a;" horiz-adv-x="681" 
d="M162 736q0 17 12 18q14 0 59 -43t115 -110t98 -90t40 -33q10 -10 16 -12q6 -3 13 -10q7 -8 7 -14q0 -8 -42 -40t-247 -228q-45 -43 -58 -43q-13 -1 -13 17t75 126t134 168q-59 59 -134 168t-75 126z" />
    <glyph glyph-name="fraction" unicode="&#x2044;" horiz-adv-x="342" 
d="M-342 -27l924 1375h102l-924 -1375h-102z" />
    <glyph glyph-name="Euro" unicode="&#x20ac;" 
d="M641 20q109 0 189 100t112 247h37v-367h-43l-43 88q-106 -115 -252 -115q-186 1 -313 143t-164 378h-133l16 49h111q-6 59 -6 116t6 109h-119l16 49h109q37 246 174 388t303 143q123 0 242 -109l53 61h25v-348h-37q-59 348 -283 348q-248 0 -274 -483h512l-17 -49h-497
q-7 -135 0 -225h430l-17 -49h-413q13 -356 146 -440q54 -34 130 -34z" />
    <glyph glyph-name="afii61289" unicode="&#x2113;" horiz-adv-x="784" 
d="M350 922v-232q74 90 120 213t46 248q0 199 -82 199q-48 0 -66 -90t-18 -338zM437 1411q186 0 186 -280q0 -254 -273 -535v-174q0 -184 38 -256t122 -72q109 0 201 137l41 -32q-115 -221 -320 -222q-135 0 -196 74q-36 45 -50 105t-14 176v151l-109 -80l-24 52l131 104
v254q0 223 19 325t79 173q76 100 169 100z" />
    <glyph glyph-name="trademark" unicode="&#x2122;" horiz-adv-x="2027" 
d="M1053 1145v-455q-1 -68 21 -96t85 -35v-39h-266v39q65 8 87 36t21 95v510q-18 45 -58 74t-83 29v38h252l315 -620l326 620h201v-38q-63 -2 -87 -31t-24 -86v-512q0 -82 9 -94t87 -21v-39h-333v39q78 9 87 21t9 94v467h-4l-312 -627h-18l-311 631h-4zM492 1303v-629
q0 -80 11 -93t85 -22v-39h-334v39q76 7 86 21t10 94v629h-98q-104 0 -139 -142h-39v180h694v-180h-39q-35 141 -139 142h-98z" />
    <glyph glyph-name="Omega" unicode="&#x2126;" horiz-adv-x="1339" 
d="M668 1282q-328 0 -328 -555q0 -113 37 -245t82 -231t102 -214l-16 -37h-441l-43 285l52 2q29 -88 57 -115t86 -27h186q-59 53 -102 99t-98 122q-115 161 -115 375q0 271 156 437q155 166 391 166t386 -160q150 -158 150 -430q0 -196 -112 -359q-82 -119 -211 -250h198
q57 0 83 25t55 117l55 -2l-47 -285h-445l-12 37q77 154 106 227q29 72 60 156q59 160 59 315q-2 283 -96 415t-235 132z" />
    <glyph glyph-name="estimated" unicode="&#x212e;" horiz-adv-x="1654" 
d="M1309 688v377q0 27 -19 45q-201 195 -466 195t-462 -201q-18 -18 -18 -47v-369q0 -12 10 -12h946q9 0 9 12zM1589 641h-1235q-10 0 -10 -8v-375q0 -23 16 -43q198 -203 478 -203t481 228h108q-102 -123 -261 -194t-341 -71q-315 0 -538 200q-223 201 -223 485t222 485
q224 201 539 201t539 -201t225 -486v-18z" />
    <glyph glyph-name="partialdiff" unicode="&#x2202;" horiz-adv-x="995" 
d="M537 741h-2q-117 0 -191 -110q-84 -143 -84 -373q0 -96 43 -158t119 -63q115 0 203 205q61 137 92 370q-19 45 -69 87t-111 42zM492 821h2q156 0 239 -125q16 125 19 209q8 168 -47 299q-31 70 -93 118t-143 48q-127 0 -258 -110q-25 -2 -49 48t-10 85q117 76 262 75
q252 0 393 -272q94 -190 94 -458t-90 -468q-131 -293 -389 -293q-156 -1 -249 101t-93 284t110 316q50 63 132 103t170 40z" />
    <glyph glyph-name="uni2206" unicode="&#x2206;" horiz-adv-x="1185" 
d="M891 98l-365 965l-354 -965h719zM1120 0h-1057v53l480 1268l82 22l495 -1290v-53z" />
    <glyph glyph-name="product" unicode="&#x220f;" horiz-adv-x="1288" 
d="M1237 1329v-53q-119 -10 -145 -34t-25 -116v-1073q0 -102 27 -129t141 -35v-55h-502v55q104 8 127 33t23 131v1143q1 43 -13 54t-57 12h-344q-41 0 -52 -10t-11 -48v-1151q0 -104 19 -130t118 -34v-55h-490v55q113 8 140 35t26 129v1073q0 94 -26 118q-27 24 -146 32v53
h1190z" />
    <glyph glyph-name="summation" unicode="&#x2211;" horiz-adv-x="1032" 
d="M670 -12q125 0 167 34t97 189l55 -14l-82 -371h-856v49l416 645l-406 758v51h846l23 -313l-56 -10q-25 125 -53 177t-65 65t-140 14h-327l338 -613l-418 -661h461z" />
    <glyph glyph-name="minus" unicode="&#x2212;" horiz-adv-x="1126" 
d="M1038 438h-950v119h950v-119z" />
    <glyph glyph-name="uni2215" unicode="&#x2215;" horiz-adv-x="342" 
d="M-342 -27l924 1375h102l-924 -1375h-102z" />
    <glyph glyph-name="uni2219" unicode="&#x2219;" horiz-adv-x="512" 
d="M252 381q-51 0 -84 33t-33 81t36 82q36 33 82 33t85 -34t39 -81q0 -48 -37 -81t-88 -33z" />
    <glyph glyph-name="radical" unicode="&#x221a;" horiz-adv-x="1034" 
d="M1006 1688l-318 -1985l-43 -20l-399 1046l-164 -76l-23 66l310 141l297 -811h4l256 1655z" />
    <glyph glyph-name="infinity" unicode="&#x221e;" horiz-adv-x="1417" 
d="M1038 733h-2q-68 0 -114 -39t-61 -53t-50 -54t-37 -42q90 -109 146 -151t126 -42q72 0 118 58t46 137q0 78 -48 132t-124 54zM385 352h2q49 0 101 33t80 61t79 89q-68 86 -111 129q-44 43 -80 56t-79 13q-80 0 -126 -55t-46 -137q0 -81 51 -135t129 -54zM1327 549v-2
q0 -137 -86 -222t-203 -85q-162 0 -327 211q-86 -103 -163 -157q-78 -54 -186 -54t-191 85t-83 216t84 217t213 86q164 0 332 -207q100 113 151 147q84 60 193 60t187 -82t79 -213z" />
    <glyph glyph-name="integral" unicode="&#x222b;" horiz-adv-x="720" 
d="M567 1606q45 0 83 -26t38 -70t-26 -68t-64 -23q-36 0 -60 48t-42 49q-84 0 -70 -308l35 -721q33 -673 -178 -828q-57 -42 -119 -42t-97 29q-36 30 -37 70t32 69q34 29 70 29t60 -52t41 -53q84 0 68 301l-37 781q-39 815 303 815z" />
    <glyph glyph-name="approxequal" unicode="&#x2248;" horiz-adv-x="995" 
d="M678 252q-80 0 -190 68t-168 67q-58 0 -95 -34t-78 -99l-77 65q41 82 110 133q70 50 149 50t193 -68q96 -65 153 -65q56 1 92 33t77 102l78 -68q-96 -184 -244 -184zM680 580q-82 0 -203 73q-164 106 -252 27q-39 -35 -78 -98l-77 65q41 84 109 134q69 50 151 50t149 -44
q36 -18 43 -25q106 -64 156 -64t88 32q37 32 78 101l78 -65q-94 -186 -242 -186z" />
    <glyph glyph-name="notequal" unicode="&#x2260;" horiz-adv-x="995" 
d="M905 782v-118h-301l-110 -254h411v-117h-456l-93 -209l-92 39l74 170h-250v117h297l109 254h-406v118h451l92 205l92 -39l-74 -166h256z" />
    <glyph glyph-name="lessequal" unicode="&#x2264;" horiz-adv-x="995" 
d="M907 0h-817v123h817v-123zM901 195l-803 411v127l803 410v-139l-684 -332v-4l684 -334v-139z" />
    <glyph glyph-name="greaterequal" unicode="&#x2265;" horiz-adv-x="995" 
d="M905 0h-813v123h813v-123zM100 1143l803 -412v-127l-803 -409v139l682 334v4l-682 332v139z" />
    <glyph glyph-name="lozenge" unicode="&#x25ca;" horiz-adv-x="1044" 
d="M821 641l-295 647h-6l-297 -645l297 -649h6zM954 641l-360 -772h-143l-361 772l363 776h141z" />
    <glyph glyph-name="fi" unicode="&#xfb01;" 
d="M555 1376q-225 0 -225 -418v-147h301q147 0 229 20v-784h121v-47h-403v47h122v717h-370v-717h125v-47h-443v47h158v717h-158v47h158v100q0 242 109 373t280 131q92 0 172 -39t80 -123q0 -33 -27 -59q-26 -26 -62 -27q-36 0 -63 29q-59 63 13 135q0 17 -42 31t-75 14z" />
    <glyph glyph-name="fl" unicode="&#xfb02;" 
d="M860 47h121v-47h-403v47h122v717h-370v-717h125v-47h-443v47h158v717h-158v47h158v107q0 242 109 372t280 131q55 0 111 -18l73 -19q30 0 67 12l50 17v-1366zM330 811h370v385q-20 4 -41 34q-20 30 -20 56t14 47l15 23q0 27 -113 26q-76 0 -151 -82t-74 -274v-215z" />
    <glyph glyph-name="a.superior" horiz-adv-x="573" 
d="M352 989v111q-215 -6 -215 -123q0 -94 92 -94q59 0 103 35q20 14 20 71zM485 1217v-283q0 -31 4 -42t25 -11q31 0 47 53h23q-4 -45 -39 -76t-99 -31t-84 82q-62 -79 -202 -81q-60 0 -106 31t-45 103t99 122t244 51v100q0 72 -86 72q-35 -1 -75 -11t-39 -30q0 -2 20 -18
t20 -36q0 -22 -18 -36q-20 -14 -50 -14t-52 16t-21 48t59 74t164 48q149 -4 180 -46t31 -85z" />
    <glyph glyph-name="o.superior" horiz-adv-x="573" 
d="M287 1313q-89 0 -110 -77q-15 -55 -15 -127q0 -116 15 -170q21 -75 109 -76q89 -1 110 76q16 58 16 130q0 71 -2 99q-7 95 -52 126q-26 19 -71 19zM287 1348q113 0 195 -76t81 -184q0 -108 -82 -185q-83 -76 -195 -76t-194 76q-82 77 -82 185t82 184t195 76z" />
    <glyph glyph-name="one.superior" horiz-adv-x="614" 
d="M530 539h-436v41h146v661q0 33 -14 41t-76 8h-64v41h64q55 0 243 17v-768h137v-41z" />
    <glyph glyph-name="two.superior" horiz-adv-x="614" 
d="M12 539v71l113 103q174 163 233 239q60 76 60 155t-44 136t-117 57t-121 -43t-48 -86v-18q36 14 60 14t42 -19t18 -47t-24 -47q-26 -20 -60 -20t-65 33t-30 78q0 98 81 150q80 53 192 53t203 -54t91 -164q0 -66 -52 -129t-194 -178l-196 -157v-4h307q47 0 59 17t17 81h47
l-19 -221h-553z" />
    <glyph glyph-name="three.superior" horiz-adv-x="614" 
d="M375 1169q0 76 -34 108t-82 32q-111 0 -109 -45q0 -10 28 -22t27 -41q0 -28 -22 -46t-50 -18q-84 0 -84 82q0 61 93 103q56 26 146 26t175 -52q84 -52 84 -125q0 -75 -55 -125t-134 -69v-4q236 -41 236 -215q0 -80 -93 -158t-233 -78t-204 51t-64 113q0 30 29 54t59 24
t58 -16t28 -43t-13 -40t-29 -14q-42 0 -42 -22q0 -31 54 -49t94 -19q98 0 138 49t40 170q0 160 -189 160q-23 0 -47 -8t-30 -8q-8 0 -18 2q-27 6 -28 49q0 29 43 29l66 -17q162 0 162 182z" />
    </font>
</defs>
</svg>
